<svg width="1440" height="779" xmlns="http://www.w3.org/2000/svg"><g><path d="M-79.57742288708687,-6.909507676027715L-98.94136094953865,23.171114223077893L26.371111650951207,-10.661640693433583Z" fill="#ffffc9" stroke="#ffffc9"></path><path d="M-79.57742288708687,-6.909507676027715L26.371111650951207,-10.661640693433583L165.24453933816403,-80.06276229862124Z" fill="#fffcc8" stroke="#fffcc8"></path><path d="M26.371111650951207,-10.661640693433583L-98.94136094953865,23.171114223077893L-17.193202185444534,140.24890449363738Z" fill="#ffffb9" stroke="#ffffb9"></path><path d="M26.371111650951207,-10.661640693433583L-17.193202185444534,140.24890449363738L76.76510009914637,118.25908597093076Z" fill="#fffda9" stroke="#fffda9"></path><path d="M26.371111650951207,-10.661640693433583L76.76510009914637,118.25908597093076L94.3158253096044,16.691607027314603Z" fill="#fffab0" stroke="#fffab0"></path><path d="M26.371111650951207,-10.661640693433583L94.3158253096044,16.691607027314603L165.24453933816403,-80.06276229862124Z" fill="#fff8be" stroke="#fff8be"></path><path d="M165.24453933816403,-80.06276229862124L94.3158253096044,16.691607027314603L131.71022904571146,28.502034465782344Z" fill="#fff5b6" stroke="#fff5b6"></path><path d="M165.24453933816403,-80.06276229862124L131.71022904571146,28.502034465782344L223.9163697930053,8.571222564205527Z" fill="#fff2b2" stroke="#fff2b2"></path><path d="M165.24453933816403,-80.06276229862124L223.9163697930053,8.571222564205527L229.43872229661793,-87.46355352923274Z" fill="#ffefb8" stroke="#ffefb8"></path><path d="M229.43872229661793,-87.46355352923274L223.9163697930053,8.571222564205527L362.0037472806871,-23.662246065214276Z" fill="#ffeaac" stroke="#ffeaac"></path><path d="M229.43872229661793,-87.46355352923274L362.0037472806871,-23.662246065214276L417.2575479140505,-56.81986794807017Z" fill="#ffe4ac" stroke="#ffe4ac"></path><path d="M229.43872229661793,-87.46355352923274L417.2575479140505,-56.81986794807017L520.5500446725637,-95.87777897249907Z" fill="#ffe0ae" stroke="#ffe0ae"></path><path d="M362.0037472806871,-23.662246065214276L223.9163697930053,8.571222564205527L322.02708199620247,84.62115684524179Z" fill="#ffe799" stroke="#ffe799"></path><path d="M362.0037472806871,-23.662246065214276L322.02708199620247,84.62115684524179L479.5797253958881,73.63229217007756Z" fill="#ffe08c" stroke="#ffe08c"></path><path d="M362.0037472806871,-23.662246065214276L479.5797253958881,73.63229217007756L417.2575479140505,-56.81986794807017Z" fill="#ffde96" stroke="#ffde96"></path><path d="M417.2575479140505,-56.81986794807017L479.5797253958881,73.63229217007756L520.5500446725637,-95.87777897249907Z" fill="#ffd998" stroke="#ffd998"></path><path d="M520.5500446725637,-95.87777897249907L479.5797253958881,73.63229217007756L586.6892283549532,74.60150478873402Z" fill="#ffd58a" stroke="#ffd58a"></path><path d="M520.5500446725637,-95.87777897249907L586.6892283549532,74.60150478873402L616.0526514751837,-76.15678885485977Z" fill="#ffd196" stroke="#ffd196"></path><path d="M520.5500446725637,-95.87777897249907L616.0526514751837,-76.15678885485977L842.0022445498034,-98.88398975599557Z" fill="#fecba0" stroke="#fecba0"></path><path d="M616.0526514751837,-76.15678885485977L586.6892283549532,74.60150478873402L693.9862967003137,8.437862619757652Z" fill="#fecd8b" stroke="#fecd8b"></path><path d="M616.0526514751837,-76.15678885485977L693.9862967003137,8.437862619757652L766.745502082631,-62.057096883654594Z" fill="#fec895" stroke="#fec895"></path><path d="M616.0526514751837,-76.15678885485977L766.745502082631,-62.057096883654594L842.0022445498034,-98.88398975599557Z" fill="#fec39c" stroke="#fec39c"></path><path d="M766.745502082631,-62.057096883654594L693.9862967003137,8.437862619757652L787.9141810117289,45.978721836581826Z" fill="#fdc187" stroke="#fdc187"></path><path d="M766.745502082631,-62.057096883654594L787.9141810117289,45.978721836581826L876.5448942314833,4.79388392996043Z" fill="#fcb784" stroke="#fcb784"></path><path d="M766.745502082631,-62.057096883654594L876.5448942314833,4.79388392996043L842.0022445498034,-98.88398975599557Z" fill="#fbb490" stroke="#fbb490"></path><path d="M842.0022445498034,-98.88398975599557L876.5448942314833,4.79388392996043L993.7359780771658,-84.7640703432262Z" fill="#f9a78e" stroke="#f9a78e"></path><path d="M842.0022445498034,-98.88398975599557L993.7359780771658,-84.7640703432262L1031.7530632717535,-91.19584588333964Z" fill="#f89e90" stroke="#f89e90"></path><path d="M842.0022445498034,-98.88398975599557L1031.7530632717535,-91.19584588333964L1544.113199482672,-97.56960605736822Z" fill="#e58792" stroke="#e58792"></path><path d="M993.7359780771658,-84.7640703432262L876.5448942314833,4.79388392996043L999.915350554511,39.92205148097128Z" fill="#f89e7e" stroke="#f89e7e"></path><path d="M993.7359780771658,-84.7640703432262L999.915350554511,39.92205148097128L1031.7530632717535,-91.19584588333964Z" fill="#f39787" stroke="#f39787"></path><path d="M1031.7530632717535,-91.19584588333964L999.915350554511,39.92205148097128L1162.333884020336,-74.22499218955636Z" fill="#ed9087" stroke="#ed9087"></path><path d="M1031.7530632717535,-91.19584588333964L1162.333884020336,-74.22499218955636L1544.113199482672,-97.56960605736822Z" fill="#d98093" stroke="#d98093"></path><path d="M1162.333884020336,-74.22499218955636L999.915350554511,39.92205148097128L1146.9748669769615,83.15269572194666Z" fill="#e98c78" stroke="#e98c78"></path><path d="M1162.333884020336,-74.22499218955636L1146.9748669769615,83.15269572194666L1235.7994245132431,71.82481829077005Z" fill="#e08276" stroke="#e08276"></path><path d="M1162.333884020336,-74.22499218955636L1235.7994245132431,71.82481829077005L1278.7495165597647,-10.793882817961276Z" fill="#dc807f" stroke="#dc807f"></path><path d="M1162.333884020336,-74.22499218955636L1278.7495165597647,-10.793882817961276L1381.9638025946915,-72.80414823908359Z" fill="#d6808d" stroke="#d6808d"></path><path d="M1162.333884020336,-74.22499218955636L1381.9638025946915,-72.80414823908359L1544.113199482672,-97.56960605736822Z" fill="#cd8095" stroke="#cd8095"></path><path d="M1278.7495165597647,-10.793882817961276L1235.7994245132431,71.82481829077005L1292.5738467369229,112.21217610873282Z" fill="#d7806e" stroke="#d7806e"></path><path d="M1278.7495165597647,-10.793882817961276L1292.5738467369229,112.21217610873282L1361.7380436044186,41.33390141651034Z" fill="#d28072" stroke="#d28072"></path><path d="M1278.7495165597647,-10.793882817961276L1361.7380436044186,41.33390141651034L1381.9638025946915,-72.80414823908359Z" fill="#cf8083" stroke="#cf8083"></path><path d="M1381.9638025946915,-72.80414823908359L1361.7380436044186,41.33390141651034L1470.6059959717095,-18.68656766600907Z" fill="#c88084" stroke="#c88084"></path><path d="M1381.9638025946915,-72.80414823908359L1470.6059959717095,-18.68656766600907L1544.113199482672,-97.56960605736822Z" fill="#c28092" stroke="#c28092"></path><path d="M1470.6059959717095,-18.68656766600907L1361.7380436044186,41.33390141651034L1495.2661206247285,92.48298367019743Z" fill="#c48076" stroke="#c48076"></path><path d="M1470.6059959717095,-18.68656766600907L1495.2661206247285,92.48298367019743L1550.0501058530062,68.02240703254938Z" fill="#be8074" stroke="#be8074"></path><path d="M1470.6059959717095,-18.68656766600907L1550.0501058530062,68.02240703254938L1544.113199482672,-97.56960605736822Z" fill="#bc8086" stroke="#bc8086"></path><path d="M1544.113199482672,-97.56960605736822L1550.0501058530062,68.02240703254938L1588.700880878605,151.7439179122448Z" fill="#b88077" stroke="#b88077"></path><path d="M-98.94136094953865,23.171114223077893L-95.68284661509097,896.2189902318642L-83.58325234148651,273.1289903167635Z" fill="#ffd187" stroke="#ffd187"></path><path d="M-98.94136094953865,23.171114223077893L-83.58325234148651,273.1289903167635L-17.193202185444534,140.24890449363738Z" fill="#fffda5" stroke="#fffda5"></path><path d="M94.3158253096044,16.691607027314603L76.76510009914637,118.25908597093076L131.71022904571146,28.502034465782344Z" fill="#fff7a8" stroke="#fff7a8"></path><path d="M131.71022904571146,28.502034465782344L76.76510009914637,118.25908597093076L204.62346319109201,110.44216277077794Z" fill="#fff49b" stroke="#fff49b"></path><path d="M131.71022904571146,28.502034465782344L204.62346319109201,110.44216277077794L223.9163697930053,8.571222564205527Z" fill="#fff09e" stroke="#fff09e"></path><path d="M223.9163697930053,8.571222564205527L204.62346319109201,110.44216277077794L322.02708199620247,84.62115684524179Z" fill="#ffeb92" stroke="#ffeb92"></path><path d="M322.02708199620247,84.62115684524179L204.62346319109201,110.44216277077794L300.452769221738,156.09841137193143Z" fill="#ffe982" stroke="#ffe982"></path><path d="M322.02708199620247,84.62115684524179L300.452769221738,156.09841137193143L364.7785409819335,202.52375018317252Z" fill="#ffe276" stroke="#ffe276"></path><path d="M322.02708199620247,84.62115684524179L364.7785409819335,202.52375018317252L468.1374314241111,175.6722419988364Z" fill="#ffdc70" stroke="#ffdc70"></path><path d="M322.02708199620247,84.62115684524179L468.1374314241111,175.6722419988364L479.5797253958881,73.63229217007756Z" fill="#ffdd77" stroke="#ffdd77"></path><path d="M479.5797253958881,73.63229217007756L468.1374314241111,175.6722419988364L562.246761796996,155.12262172996998Z" fill="#ffd66b" stroke="#ffd66b"></path><path d="M479.5797253958881,73.63229217007756L562.246761796996,155.12262172996998L586.6892283549532,74.60150478873402Z" fill="#ffd473" stroke="#ffd473"></path><path d="M586.6892283549532,74.60150478873402L562.246761796996,155.12262172996998L668.5241179075092,129.64460260700434Z" fill="#fecf6b" stroke="#fecf6b"></path><path d="M586.6892283549532,74.60150478873402L668.5241179075092,129.64460260700434L693.9862967003137,8.437862619757652Z" fill="#fecc77" stroke="#fecc77"></path><path d="M693.9862967003137,8.437862619757652L668.5241179075092,129.64460260700434L787.9141810117289,45.978721836581826Z" fill="#fec677" stroke="#fec677"></path><path d="M787.9141810117289,45.978721836581826L668.5241179075092,129.64460260700434L790.2043802430853,103.35146258585155Z" fill="#fdc16d" stroke="#fdc16d"></path><path d="M787.9141810117289,45.978721836581826L790.2043802430853,103.35146258585155L854.8699842998758,123.62602532375604Z" fill="#fcb76a" stroke="#fcb76a"></path><path d="M787.9141810117289,45.978721836581826L854.8699842998758,123.62602532375604L876.5448942314833,4.79388392996043Z" fill="#fbb271" stroke="#fbb271"></path><path d="M876.5448942314833,4.79388392996043L854.8699842998758,123.62602532375604L918.2702672667801,142.38709828350693Z" fill="#faaa66" stroke="#faaa66"></path><path d="M876.5448942314833,4.79388392996043L918.2702672667801,142.38709828350693L999.915350554511,39.92205148097128Z" fill="#f9a26b" stroke="#f9a26b"></path><path d="M999.915350554511,39.92205148097128L918.2702672667801,142.38709828350693L1014.7047078236938,85.79680875409395Z" fill="#f69b62" stroke="#f69b62"></path><path d="M999.915350554511,39.92205148097128L1014.7047078236938,85.79680875409395L1146.9748669769615,83.15269572194666Z" fill="#ee9268" stroke="#ee9268"></path><path d="M1014.7047078236938,85.79680875409395L918.2702672667801,142.38709828350693L1021.9914536224678,152.75462118443102Z" fill="#f59a58" stroke="#f59a58"></path><path d="M1014.7047078236938,85.79680875409395L1021.9914536224678,152.75462118443102L1146.9748669769615,83.15269572194666Z" fill="#ed915e" stroke="#ed915e"></path><path d="M1146.9748669769615,83.15269572194666L1021.9914536224678,152.75462118443102L1150.977082666941,213.0845391890034Z" fill="#e88855" stroke="#e88855"></path><path d="M1146.9748669769615,83.15269572194666L1150.977082666941,213.0845391890034L1183.83760699071,156.6013470524922Z" fill="#e28155" stroke="#e28155"></path><path d="M1146.9748669769615,83.15269572194666L1183.83760699071,156.6013470524922L1235.7994245132431,71.82481829077005Z" fill="#df8161" stroke="#df8161"></path><path d="M1235.7994245132431,71.82481829077005L1183.83760699071,156.6013470524922L1292.5738467369229,112.21217610873282Z" fill="#da805f" stroke="#da805f"></path><path d="M1361.7380436044186,41.33390141651034L1292.5738467369229,112.21217610873282L1368.5421261703596,152.26786334533244Z" fill="#cf8063" stroke="#cf8063"></path><path d="M1361.7380436044186,41.33390141651034L1368.5421261703596,152.26786334533244L1495.2661206247285,92.48298367019743Z" fill="#c88066" stroke="#c88066"></path><path d="M1495.2661206247285,92.48298367019743L1368.5421261703596,152.26786334533244L1402.3350104223937,174.624070385471Z" fill="#c77e5b" stroke="#c77e5b"></path><path d="M1495.2661206247285,92.48298367019743L1402.3350104223937,174.624070385471L1506.196120288223,210.19545723684132Z" fill="#c27b58" stroke="#c27b58"></path><path d="M1495.2661206247285,92.48298367019743L1506.196120288223,210.19545723684132L1588.700880878605,151.7439179122448Z" fill="#bb7c59" stroke="#bb7c59"></path><path d="M1495.2661206247285,92.48298367019743L1588.700880878605,151.7439179122448L1550.0501058530062,68.02240703254938Z" fill="#ba8065" stroke="#ba8065"></path><path d="M-17.193202185444534,140.24890449363738L-83.58325234148651,273.1289903167635L67.89048176724464,263.4741455782205Z" fill="#ffef8e" stroke="#ffef8e"></path><path d="M-17.193202185444534,140.24890449363738L67.89048176724464,263.4741455782205L76.76510009914637,118.25908597093076Z" fill="#fff492" stroke="#fff492"></path><path d="M76.76510009914637,118.25908597093076L67.89048176724464,263.4741455782205L162.02614798676223,196.1696755606681Z" fill="#ffed86" stroke="#ffed86"></path><path d="M76.76510009914637,118.25908597093076L162.02614798676223,196.1696755606681L204.62346319109201,110.44216277077794Z" fill="#fff28b" stroke="#fff28b"></path><path d="M162.02614798676223,196.1696755606681L67.89048176724464,263.4741455782205L170.3906374750659,260.01171972602606Z" fill="#ffe37a" stroke="#ffe37a"></path><path d="M162.02614798676223,196.1696755606681L170.3906374750659,260.01171972602606L205.9556344524026,241.6832592105493Z" fill="#ffe075" stroke="#ffe075"></path><path d="M162.02614798676223,196.1696755606681L205.9556344524026,241.6832592105493L204.62346319109201,110.44216277077794Z" fill="#ffe77d" stroke="#ffe77d"></path><path d="M204.62346319109201,110.44216277077794L205.9556344524026,241.6832592105493L300.452769221738,156.09841137193143Z" fill="#ffe67a" stroke="#ffe67a"></path><path d="M300.452769221738,156.09841137193143L205.9556344524026,241.6832592105493L364.7785409819335,202.52375018317252Z" fill="#ffdd6f" stroke="#ffdd6f"></path><path d="M468.1374314241111,175.6722419988364L364.7785409819335,202.52375018317252L407.6450780732557,291.4542545331642Z" fill="#ffcf60" stroke="#ffcf60"></path><path d="M468.1374314241111,175.6722419988364L407.6450780732557,291.4542545331642L532.8905805479735,230.31322595197707Z" fill="#ffc95a" stroke="#ffc95a"></path><path d="M468.1374314241111,175.6722419988364L532.8905805479735,230.31322595197707L562.246761796996,155.12262172996998Z" fill="#ffcc60" stroke="#ffcc60"></path><path d="M562.246761796996,155.12262172996998L532.8905805479735,230.31322595197707L620.6373041961342,289.83055711723864Z" fill="#ffc257" stroke="#ffc257"></path><path d="M562.246761796996,155.12262172996998L620.6373041961342,289.83055711723864L668.5241179075092,129.64460260700434Z" fill="#fec45c" stroke="#fec45c"></path><path d="M668.5241179075092,129.64460260700434L620.6373041961342,289.83055711723864L769.6552627487108,228.05107363965362Z" fill="#febb55" stroke="#febb55"></path><path d="M668.5241179075092,129.64460260700434L769.6552627487108,228.05107363965362L790.2043802430853,103.35146258585155Z" fill="#febe5f" stroke="#febe5f"></path><path d="M790.2043802430853,103.35146258585155L769.6552627487108,228.05107363965362L854.8699842998758,123.62602532375604Z" fill="#fcb45b" stroke="#fcb45b"></path><path d="M854.8699842998758,123.62602532375604L769.6552627487108,228.05107363965362L881.3095270423219,276.4842546544969Z" fill="#fba64f" stroke="#fba64f"></path><path d="M854.8699842998758,123.62602532375604L881.3095270423219,276.4842546544969L918.2702672667801,142.38709828350693Z" fill="#faa251" stroke="#faa251"></path><path d="M918.2702672667801,142.38709828350693L881.3095270423219,276.4842546544969L999.349174881354,215.54707803297788Z" fill="#f89448" stroke="#f89448"></path><path d="M918.2702672667801,142.38709828350693L999.349174881354,215.54707803297788L1021.9914536224678,152.75462118443102Z" fill="#f6944f" stroke="#f6944f"></path><path d="M1021.9914536224678,152.75462118443102L999.349174881354,215.54707803297788L1093.4426145162433,265.8429649658501Z" fill="#ef8648" stroke="#ef8648"></path><path d="M1021.9914536224678,152.75462118443102L1093.4426145162433,265.8429649658501L1150.977082666941,213.0845391890034Z" fill="#ea8048" stroke="#ea8048"></path><path d="M1183.83760699071,156.6013470524922L1150.977082666941,213.0845391890034L1205.6684999261051,258.8272458873689Z" fill="#e0754a" stroke="#e0754a"></path><path d="M1183.83760699071,156.6013470524922L1205.6684999261051,258.8272458873689L1292.5738467369229,112.21217610873282Z" fill="#db7851" stroke="#db7851"></path><path d="M1292.5738467369229,112.21217610873282L1205.6684999261051,258.8272458873689L1368.5421261703596,152.26786334533244Z" fill="#d57852" stroke="#d57852"></path><path d="M1368.5421261703596,152.26786334533244L1205.6684999261051,258.8272458873689L1351.179150491953,291.6040961164981Z" fill="#d36e47" stroke="#d36e47"></path><path d="M1368.5421261703596,152.26786334533244L1351.179150491953,291.6040961164981L1402.3350104223937,174.624070385471Z" fill="#cc734d" stroke="#cc734d"></path><path d="M1402.3350104223937,174.624070385471L1351.179150491953,291.6040961164981L1477.5038200430572,227.65348877292126Z" fill="#c86f48" stroke="#c86f48"></path><path d="M1402.3350104223937,174.624070385471L1477.5038200430572,227.65348877292126L1506.196120288223,210.19545723684132Z" fill="#c2734f" stroke="#c2734f"></path><path d="M1588.700880878605,151.7439179122448L1506.196120288223,210.19545723684132L1591.0960910841823,392.7730286726728Z" fill="#b86c46" stroke="#b86c46"></path><path d="M1588.700880878605,151.7439179122448L1591.0960910841823,392.7730286726728L1594.9839873472229,444.1226589959115Z" fill="#b55e40" stroke="#b55e40"></path><path d="M-83.58325234148651,273.1289903167635L-95.68284661509097,896.2189902318642L-60.83690878003836,716.0806269384921Z" fill="#f38579" stroke="#f38579"></path><path d="M-83.58325234148651,273.1289903167635L-60.83690878003836,716.0806269384921L-53.46016825642437,438.61787302885205Z" fill="#ffb37a" stroke="#ffb37a"></path><path d="M-83.58325234148651,273.1289903167635L-53.46016825642437,438.61787302885205L-16.05610102415085,396.50134798139334Z" fill="#ffd785" stroke="#ffd785"></path><path d="M-83.58325234148651,273.1289903167635L-16.05610102415085,396.50134798139334L67.89048176724464,263.4741455782205Z" fill="#ffe184" stroke="#ffe184"></path><path d="M67.89048176724464,263.4741455782205L-16.05610102415085,396.50134798139334L89.09565056674182,351.49860829114914Z" fill="#ffd97b" stroke="#ffd97b"></path><path d="M67.89048176724464,263.4741455782205L89.09565056674182,351.49860829114914L155.34491257276386,308.47230460494757Z" fill="#ffda76" stroke="#ffda76"></path><path d="M67.89048176724464,263.4741455782205L155.34491257276386,308.47230460494757L170.3906374750659,260.01171972602606Z" fill="#ffdc74" stroke="#ffdc74"></path><path d="M170.3906374750659,260.01171972602606L155.34491257276386,308.47230460494757L218.43563420698047,349.45921413600445Z" fill="#ffd36c" stroke="#ffd36c"></path><path d="M170.3906374750659,260.01171972602606L218.43563420698047,349.45921413600445L205.9556344524026,241.6832592105493Z" fill="#ffd66b" stroke="#ffd66b"></path><path d="M205.9556344524026,241.6832592105493L218.43563420698047,349.45921413600445L356.89325218554586,308.52471105754375Z" fill="#ffce63" stroke="#ffce63"></path><path d="M205.9556344524026,241.6832592105493L356.89325218554586,308.52471105754375L364.7785409819335,202.52375018317252Z" fill="#ffd364" stroke="#ffd364"></path><path d="M364.7785409819335,202.52375018317252L356.89325218554586,308.52471105754375L407.6450780732557,291.4542545331642Z" fill="#ffca5c" stroke="#ffca5c"></path><path d="M407.6450780732557,291.4542545331642L356.89325218554586,308.52471105754375L466.86791067477316,364.2624311381951Z" fill="#ffbe55" stroke="#ffbe55"></path><path d="M407.6450780732557,291.4542545331642L466.86791067477316,364.2624311381951L532.8905805479735,230.31322595197707Z" fill="#ffbe52" stroke="#ffbe52"></path><path d="M532.8905805479735,230.31322595197707L466.86791067477316,364.2624311381951L585.2992193773389,371.13592273090035Z" fill="#ffb54d" stroke="#ffb54d"></path><path d="M532.8905805479735,230.31322595197707L585.2992193773389,371.13592273090035L620.6373041961342,289.83055711723864Z" fill="#ffb54d" stroke="#ffb54d"></path><path d="M620.6373041961342,289.83055711723864L585.2992193773389,371.13592273090035L672.7012314368039,376.07999220490456Z" fill="#fea948" stroke="#fea948"></path><path d="M620.6373041961342,289.83055711723864L672.7012314368039,376.07999220490456L708.1170010613278,327.62043031398207Z" fill="#fea948" stroke="#fea948"></path><path d="M620.6373041961342,289.83055711723864L708.1170010613278,327.62043031398207L769.6552627487108,228.05107363965362Z" fill="#feae4a" stroke="#feae4a"></path><path d="M769.6552627487108,228.05107363965362L708.1170010613278,327.62043031398207L801.3183964183554,398.08299257420003Z" fill="#fda044" stroke="#fda044"></path><path d="M769.6552627487108,228.05107363965362L801.3183964183554,398.08299257420003L881.3095270423219,276.4842546544969Z" fill="#fc9943" stroke="#fc9943"></path><path d="M881.3095270423219,276.4842546544969L801.3183964183554,398.08299257420003L876.2718131532893,410.44621060136706Z" fill="#fb893c" stroke="#fb893c"></path><path d="M881.3095270423219,276.4842546544969L876.2718131532893,410.44621060136706L952.2090760758147,323.1583032757044Z" fill="#f9843b" stroke="#f9843b"></path><path d="M881.3095270423219,276.4842546544969L952.2090760758147,323.1583032757044L999.349174881354,215.54707803297788Z" fill="#f8883d" stroke="#f8883d"></path><path d="M999.349174881354,215.54707803297788L952.2090760758147,323.1583032757044L1093.4426145162433,265.8429649658501Z" fill="#f27f3d" stroke="#f27f3d"></path><path d="M1093.4426145162433,265.8429649658501L952.2090760758147,323.1583032757044L1085.5180498445407,374.7376057552174Z" fill="#ef733a" stroke="#ef733a"></path><path d="M1093.4426145162433,265.8429649658501L1085.5180498445407,374.7376057552174L1103.0735647305846,375.96300679724663Z" fill="#ea6a39" stroke="#ea6a39"></path><path d="M1093.4426145162433,265.8429649658501L1103.0735647305846,375.96300679724663L1205.6684999261051,258.8272458873689Z" fill="#e56b3c" stroke="#e56b3c"></path><path d="M1093.4426145162433,265.8429649658501L1205.6684999261051,258.8272458873689L1150.977082666941,213.0845391890034Z" fill="#e47342" stroke="#e47342"></path><path d="M1205.6684999261051,258.8272458873689L1103.0735647305846,375.96300679724663L1195.1853576581925,419.7696856223047Z" fill="#e25f39" stroke="#e25f39"></path><path d="M1205.6684999261051,258.8272458873689L1195.1853576581925,419.7696856223047L1269.6419464191422,373.242696467787Z" fill="#dc5b3a" stroke="#dc5b3a"></path><path d="M1205.6684999261051,258.8272458873689L1269.6419464191422,373.242696467787L1351.179150491953,291.6040961164981Z" fill="#d6623e" stroke="#d6623e"></path><path d="M1351.179150491953,291.6040961164981L1269.6419464191422,373.242696467787L1373.9098838763312,359.5162320882082Z" fill="#d05c3c" stroke="#d05c3c"></path><path d="M1351.179150491953,291.6040961164981L1373.9098838763312,359.5162320882082L1445.1628165552393,351.55065953731537Z" fill="#ca5e3d" stroke="#ca5e3d"></path><path d="M1351.179150491953,291.6040961164981L1445.1628165552393,351.55065953731537L1477.5038200430572,227.65348877292126Z" fill="#c66541" stroke="#c66541"></path><path d="M1477.5038200430572,227.65348877292126L1445.1628165552393,351.55065953731537L1591.0960910841823,392.7730286726728Z" fill="#be5f40" stroke="#be5f40"></path><path d="M1477.5038200430572,227.65348877292126L1591.0960910841823,392.7730286726728L1506.196120288223,210.19545723684132Z" fill="#bc6743" stroke="#bc6743"></path><path d="M-16.05610102415085,396.50134798139334L-53.46016825642437,438.61787302885205L60.38243069779128,472.5161107024178Z" fill="#ffc277" stroke="#ffc277"></path><path d="M-16.05610102415085,396.50134798139334L60.38243069779128,472.5161107024178L89.09565056674182,351.49860829114914Z" fill="#ffca75" stroke="#ffca75"></path><path d="M89.09565056674182,351.49860829114914L60.38243069779128,472.5161107024178L199.31288096122444,445.26272476650774Z" fill="#ffbe6a" stroke="#ffbe6a"></path><path d="M89.09565056674182,351.49860829114914L199.31288096122444,445.26272476650774L202.88519416935742,410.32963301986456Z" fill="#ffc267" stroke="#ffc267"></path><path d="M89.09565056674182,351.49860829114914L202.88519416935742,410.32963301986456L155.34491257276386,308.47230460494757Z" fill="#ffcd6d" stroke="#ffcd6d"></path><path d="M155.34491257276386,308.47230460494757L202.88519416935742,410.32963301986456L218.43563420698047,349.45921413600445Z" fill="#ffca67" stroke="#ffca67"></path><path d="M218.43563420698047,349.45921413600445L202.88519416935742,410.32963301986456L336.6713644238189,472.36241567879915Z" fill="#ffb85b" stroke="#ffb85b"></path><path d="M218.43563420698047,349.45921413600445L336.6713644238189,472.36241567879915L356.89325218554586,308.52471105754375Z" fill="#ffbe5a" stroke="#ffbe5a"></path><path d="M356.89325218554586,308.52471105754375L336.6713644238189,472.36241567879915L466.86791067477316,364.2624311381951Z" fill="#ffb652" stroke="#ffb652"></path><path d="M466.86791067477316,364.2624311381951L336.6713644238189,472.36241567879915L476.5800032299012,453.4447713755071Z" fill="#ffa249" stroke="#ffa249"></path><path d="M466.86791067477316,364.2624311381951L476.5800032299012,453.4447713755071L501.8957204418257,444.82492529787123Z" fill="#ffa146" stroke="#ffa146"></path><path d="M466.86791067477316,364.2624311381951L501.8957204418257,444.82492529787123L585.2992193773389,371.13592273090035Z" fill="#ffa948" stroke="#ffa948"></path><path d="M585.2992193773389,371.13592273090035L501.8957204418257,444.82492529787123L673.4778725076467,460.877275839448Z" fill="#ff9842" stroke="#ff9842"></path><path d="M585.2992193773389,371.13592273090035L673.4778725076467,460.877275839448L672.7012314368039,376.07999220490456Z" fill="#fe9c43" stroke="#fe9c43"></path><path d="M672.7012314368039,376.07999220490456L673.4778725076467,460.877275839448L716.128640039824,433.786191791296Z" fill="#fe903e" stroke="#fe903e"></path><path d="M672.7012314368039,376.07999220490456L716.128640039824,433.786191791296L708.1170010613278,327.62043031398207Z" fill="#fe9e43" stroke="#fe9e43"></path><path d="M708.1170010613278,327.62043031398207L716.128640039824,433.786191791296L801.3183964183554,398.08299257420003Z" fill="#fe9840" stroke="#fe9840"></path><path d="M801.3183964183554,398.08299257420003L716.128640039824,433.786191791296L724.2461821995676,542.5992571515962Z" fill="#fe7c38" stroke="#fe7c38"></path><path d="M801.3183964183554,398.08299257420003L724.2461821995676,542.5992571515962L904.0769086685032,476.7652770038694Z" fill="#fc6c32" stroke="#fc6c32"></path><path d="M801.3183964183554,398.08299257420003L904.0769086685032,476.7652770038694L876.2718131532893,410.44621060136706Z" fill="#fa7435" stroke="#fa7435"></path><path d="M952.2090760758147,323.1583032757044L876.2718131532893,410.44621060136706L1008.1733762519434,459.4600234879181Z" fill="#f87134" stroke="#f87134"></path><path d="M952.2090760758147,323.1583032757044L1008.1733762519434,459.4600234879181L1085.5180498445407,374.7376057552174Z" fill="#f26b35" stroke="#f26b35"></path><path d="M1085.5180498445407,374.7376057552174L1008.1733762519434,459.4600234879181L1121.2399264564738,515.6495165079832Z" fill="#ec4d2e" stroke="#ec4d2e"></path><path d="M1085.5180498445407,374.7376057552174L1121.2399264564738,515.6495165079832L1103.0735647305846,375.96300679724663Z" fill="#e95432" stroke="#e95432"></path><path d="M1103.0735647305846,375.96300679724663L1121.2399264564738,515.6495165079832L1195.1853576581925,419.7696856223047Z" fill="#e54a30" stroke="#e54a30"></path><path d="M1269.6419464191422,373.242696467787L1195.1853576581925,419.7696856223047L1270.7238069502637,426.18639790453017Z" fill="#d94e35" stroke="#d94e35"></path><path d="M1269.6419464191422,373.242696467787L1270.7238069502637,426.18639790453017L1309.3327320879325,435.96978175919503Z" fill="#d54c35" stroke="#d54c35"></path><path d="M1269.6419464191422,373.242696467787L1309.3327320879325,435.96978175919503L1373.9098838763312,359.5162320882082Z" fill="#d25438" stroke="#d25438"></path><path d="M1373.9098838763312,359.5162320882082L1309.3327320879325,435.96978175919503L1402.5129027897492,518.2975655421615Z" fill="#cd4233" stroke="#cd4233"></path><path d="M1373.9098838763312,359.5162320882082L1402.5129027897492,518.2975655421615L1474.0703652612865,476.77317617926747Z" fill="#c73d31" stroke="#c73d31"></path><path d="M1373.9098838763312,359.5162320882082L1474.0703652612865,476.77317617926747L1445.1628165552393,351.55065953731537Z" fill="#c65239" stroke="#c65239"></path><path d="M1445.1628165552393,351.55065953731537L1474.0703652612865,476.77317617926747L1591.0960910841823,392.7730286726728Z" fill="#be4e39" stroke="#be4e39"></path><path d="M1591.0960910841823,392.7730286726728L1474.0703652612865,476.77317617926747L1594.9839873472229,444.1226589959115Z" fill="#b94235" stroke="#b94235"></path><path d="M-53.46016825642437,438.61787302885205L-60.83690878003836,716.0806269384921L-26.46334506571293,520.2121826587245Z" fill="#fb9873" stroke="#fb9873"></path><path d="M-53.46016825642437,438.61787302885205L-26.46334506571293,520.2121826587245L60.38243069779128,472.5161107024178Z" fill="#ffb373" stroke="#ffb373"></path><path d="M60.38243069779128,472.5161107024178L-26.46334506571293,520.2121826587245L50.579260871745646,523.0602561030537Z" fill="#ffa66b" stroke="#ffa66b"></path><path d="M60.38243069779128,472.5161107024178L50.579260871745646,523.0602561030537L172.70930234808475,502.0872911904007Z" fill="#ffa363" stroke="#ffa363"></path><path d="M60.38243069779128,472.5161107024178L172.70930234808475,502.0872911904007L199.31288096122444,445.26272476650774Z" fill="#ffa960" stroke="#ffa960"></path><path d="M199.31288096122444,445.26272476650774L172.70930234808475,502.0872911904007L235.49409434199333,572.7455721236765Z" fill="#ff9854" stroke="#ff9854"></path><path d="M199.31288096122444,445.26272476650774L235.49409434199333,572.7455721236765L336.6713644238189,472.36241567879915Z" fill="#ff9750" stroke="#ff9750"></path><path d="M199.31288096122444,445.26272476650774L336.6713644238189,472.36241567879915L202.88519416935742,410.32963301986456Z" fill="#ffac57" stroke="#ffac57"></path><path d="M336.6713644238189,472.36241567879915L235.49409434199333,572.7455721236765L374.73142475355417,560.100099700503Z" fill="#fd8648" stroke="#fd8648"></path><path d="M336.6713644238189,472.36241567879915L374.73142475355417,560.100099700503L424.3452219758183,552.3325032787398Z" fill="#fe8242" stroke="#fe8242"></path><path d="M336.6713644238189,472.36241567879915L424.3452219758183,552.3325032787398L476.5800032299012,453.4447713755071Z" fill="#ff8c43" stroke="#ff8c43"></path><path d="M476.5800032299012,453.4447713755071L424.3452219758183,552.3325032787398L561.0731401946396,579.1786370798945Z" fill="#fe7939" stroke="#fe7939"></path><path d="M476.5800032299012,453.4447713755071L561.0731401946396,579.1786370798945L501.8957204418257,444.82492529787123Z" fill="#ff843c" stroke="#ff843c"></path><path d="M501.8957204418257,444.82492529787123L561.0731401946396,579.1786370798945L673.4778725076467,460.877275839448Z" fill="#ff7e39" stroke="#ff7e39"></path><path d="M673.4778725076467,460.877275839448L561.0731401946396,579.1786370798945L633.9992088032886,569.5033746771514Z" fill="#fc6d35" stroke="#fc6d35"></path><path d="M673.4778725076467,460.877275839448L633.9992088032886,569.5033746771514L724.2461821995676,542.5992571515962Z" fill="#fe6c33" stroke="#fe6c33"></path><path d="M673.4778725076467,460.877275839448L724.2461821995676,542.5992571515962L716.128640039824,433.786191791296Z" fill="#fe7a37" stroke="#fe7a37"></path><path d="M876.2718131532893,410.44621060136706L904.0769086685032,476.7652770038694L1008.1733762519434,459.4600234879181Z" fill="#f9602e" stroke="#f9602e"></path><path d="M904.0769086685032,476.7652770038694L724.2461821995676,542.5992571515962L899.3093897821382,581.1561107169837Z" fill="#f9512b" stroke="#f9512b"></path><path d="M904.0769086685032,476.7652770038694L899.3093897821382,581.1561107169837L980.2311968058348,578.4447692334652Z" fill="#f63f26" stroke="#f63f26"></path><path d="M904.0769086685032,476.7652770038694L980.2311968058348,578.4447692334652L1008.1733762519434,459.4600234879181Z" fill="#f74625" stroke="#f74625"></path><path d="M1008.1733762519434,459.4600234879181L980.2311968058348,578.4447692334652L1027.9135058633983,574.3462591664866Z" fill="#f13624" stroke="#f13624"></path><path d="M1008.1733762519434,459.4600234879181L1027.9135058633983,574.3462591664866L1121.2399264564738,515.6495165079832Z" fill="#ee3625" stroke="#ee3625"></path><path d="M1195.1853576581925,419.7696856223047L1121.2399264564738,515.6495165079832L1267.6658627809957,548.7370799994096Z" fill="#df2d29" stroke="#df2d29"></path><path d="M1195.1853576581925,419.7696856223047L1267.6658627809957,548.7370799994096L1270.7238069502637,426.18639790453017Z" fill="#da382e" stroke="#da382e"></path><path d="M1270.7238069502637,426.18639790453017L1267.6658627809957,548.7370799994096L1309.3327320879325,435.96978175919503Z" fill="#d5362d" stroke="#d5362d"></path><path d="M1309.3327320879325,435.96978175919503L1267.6658627809957,548.7370799994096L1402.5129027897492,518.2975655421615Z" fill="#d12a2a" stroke="#d12a2a"></path><path d="M1474.0703652612865,476.77317617926747L1402.5129027897492,518.2975655421615L1538.3830276317894,558.6198908509687Z" fill="#c1242a" stroke="#c1242a"></path><path d="M1474.0703652612865,476.77317617926747L1538.3830276317894,558.6198908509687L1594.9839873472229,444.1226589959115Z" fill="#bb2d2e" stroke="#bb2d2e"></path><path d="M1594.9839873472229,444.1226589959115L1538.3830276317894,558.6198908509687L1551.3736246386543,760.794851812534Z" fill="#b0112d" stroke="#b0112d"></path><path d="M-26.46334506571293,520.2121826587245L-60.83690878003836,716.0806269384921L-31.704661436378956,676.1429562233388Z" fill="#f28374" stroke="#f28374"></path><path d="M-26.46334506571293,520.2121826587245L-31.704661436378956,676.1429562233388L50.579260871745646,523.0602561030537Z" fill="#f9946e" stroke="#f9946e"></path><path d="M50.579260871745646,523.0602561030537L-31.704661436378956,676.1429562233388L77.94919840525836,664.9983436102048Z" fill="#f3856b" stroke="#f3856b"></path><path d="M50.579260871745646,523.0602561030537L77.94919840525836,664.9983436102048L127.6977927191183,639.180810120888Z" fill="#f58464" stroke="#f58464"></path><path d="M50.579260871745646,523.0602561030537L127.6977927191183,639.180810120888L172.70930234808475,502.0872911904007Z" fill="#fb905f" stroke="#fb905f"></path><path d="M172.70930234808475,502.0872911904007L127.6977927191183,639.180810120888L235.49409434199333,572.7455721236765Z" fill="#f98757" stroke="#f98757"></path><path d="M235.49409434199333,572.7455721236765L127.6977927191183,639.180810120888L243.72875599656254,664.3211446236819Z" fill="#f27656" stroke="#f27656"></path><path d="M235.49409434199333,572.7455721236765L243.72875599656254,664.3211446236819L338.3788749575615,687.8053767839447Z" fill="#f16c4f" stroke="#f16c4f"></path><path d="M235.49409434199333,572.7455721236765L338.3788749575615,687.8053767839447L374.73142475355417,560.100099700503Z" fill="#f5724a" stroke="#f5724a"></path><path d="M374.73142475355417,560.100099700503L338.3788749575615,687.8053767839447L474.67719512060285,688.4158580098301Z" fill="#f06144" stroke="#f06144"></path><path d="M374.73142475355417,560.100099700503L474.67719512060285,688.4158580098301L424.3452219758183,552.3325032787398Z" fill="#f56b40" stroke="#f56b40"></path><path d="M424.3452219758183,552.3325032787398L474.67719512060285,688.4158580098301L537.7527328208089,662.7470020903274Z" fill="#f15d3c" stroke="#f15d3c"></path><path d="M424.3452219758183,552.3325032787398L537.7527328208089,662.7470020903274L561.0731401946396,579.1786370798945Z" fill="#f6653a" stroke="#f6653a"></path><path d="M561.0731401946396,579.1786370798945L537.7527328208089,662.7470020903274L662.0909864315763,679.6328542521223Z" fill="#f15439" stroke="#f15439"></path><path d="M561.0731401946396,579.1786370798945L662.0909864315763,679.6328542521223L633.9992088032886,569.5033746771514Z" fill="#f45937" stroke="#f45937"></path><path d="M633.9992088032886,569.5033746771514L662.0909864315763,679.6328542521223L743.2329495903105,613.8256748439744Z" fill="#f35135" stroke="#f35135"></path><path d="M633.9992088032886,569.5033746771514L743.2329495903105,613.8256748439744L724.2461821995676,542.5992571515962Z" fill="#f85c33" stroke="#f85c33"></path><path d="M724.2461821995676,542.5992571515962L743.2329495903105,613.8256748439744L899.3093897821382,581.1561107169837Z" fill="#f54e2f" stroke="#f54e2f"></path><path d="M899.3093897821382,581.1561107169837L743.2329495903105,613.8256748439744L826.4652903191745,695.9456294542179Z" fill="#ee3a2e" stroke="#ee3a2e"></path><path d="M899.3093897821382,581.1561107169837L826.4652903191745,695.9456294542179L995.9976396057755,691.2544601364061Z" fill="#e9272a" stroke="#e9272a"></path><path d="M899.3093897821382,581.1561107169837L995.9976396057755,691.2544601364061L1004.9340963130817,669.1966480808333Z" fill="#e81d27" stroke="#e81d27"></path><path d="M899.3093897821382,581.1561107169837L1004.9340963130817,669.1966480808333L980.2311968058348,578.4447692334652Z" fill="#ed2826" stroke="#ed2826"></path><path d="M980.2311968058348,578.4447692334652L1004.9340963130817,669.1966480808333L1027.9135058633983,574.3462591664866Z" fill="#e92426" stroke="#e92426"></path><path d="M1027.9135058633983,574.3462591664866L1004.9340963130817,669.1966480808333L1111.7824726738036,699.1906571900472Z" fill="#df1328" stroke="#df1328"></path><path d="M1027.9135058633983,574.3462591664866L1111.7824726738036,699.1906571900472L1121.2399264564738,515.6495165079832Z" fill="#e11c27" stroke="#e11c27"></path><path d="M1121.2399264564738,515.6495165079832L1111.7824726738036,699.1906571900472L1267.6658627809957,548.7370799994096Z" fill="#da1528" stroke="#da1528"></path><path d="M1267.6658627809957,548.7370799994096L1111.7824726738036,699.1906571900472L1297.738223313354,678.0778244370595Z" fill="#ce022a" stroke="#ce022a"></path><path d="M1267.6658627809957,548.7370799994096L1297.738223313354,678.0778244370595L1341.022777138278,611.8150031892583Z" fill="#c80a2a" stroke="#c80a2a"></path><path d="M1267.6658627809957,548.7370799994096L1341.022777138278,611.8150031892583L1382.2519806446508,585.6828215066344Z" fill="#c91229" stroke="#c91229"></path><path d="M1267.6658627809957,548.7370799994096L1382.2519806446508,585.6828215066344L1402.5129027897492,518.2975655421615Z" fill="#cb1b29" stroke="#cb1b29"></path><path d="M1382.2519806446508,585.6828215066344L1341.022777138278,611.8150031892583L1404.747049906291,645.3955134609714Z" fill="#c10a2b" stroke="#c10a2b"></path><path d="M1382.2519806446508,585.6828215066344L1404.747049906291,645.3955134609714L1502.2849520901218,652.5882589863613Z" fill="#b9062c" stroke="#b9062c"></path><path d="M1382.2519806446508,585.6828215066344L1502.2849520901218,652.5882589863613L1538.3830276317894,558.6198908509687Z" fill="#b80e2c" stroke="#b80e2c"></path><path d="M1382.2519806446508,585.6828215066344L1538.3830276317894,558.6198908509687L1402.5129027897492,518.2975655421615Z" fill="#c11a2a" stroke="#c11a2a"></path><path d="M1538.3830276317894,558.6198908509687L1502.2849520901218,652.5882589863613L1551.3736246386543,760.794851812534Z" fill="#ab002e" stroke="#ab002e"></path><path d="M-31.704661436378956,676.1429562233388L-60.83690878003836,716.0806269384921L35.49611864145845,704.5289438217878Z" fill="#eb8074" stroke="#eb8074"></path><path d="M-31.704661436378956,676.1429562233388L35.49611864145845,704.5289438217878L77.94919840525836,664.9983436102048Z" fill="#ec7e6d" stroke="#ec7e6d"></path><path d="M77.94919840525836,664.9983436102048L35.49611864145845,704.5289438217878L164.81738400179893,789.2235478619114Z" fill="#e87866" stroke="#e87866"></path><path d="M77.94919840525836,664.9983436102048L164.81738400179893,789.2235478619114L127.6977927191183,639.180810120888Z" fill="#ea7662" stroke="#ea7662"></path><path d="M127.6977927191183,639.180810120888L164.81738400179893,789.2235478619114L243.72875599656254,664.3211446236819Z" fill="#ea725b" stroke="#ea725b"></path><path d="M243.72875599656254,664.3211446236819L164.81738400179893,789.2235478619114L284.78488677646965,781.7317219916731Z" fill="#e56d55" stroke="#e56d55"></path><path d="M243.72875599656254,664.3211446236819L284.78488677646965,781.7317219916731L338.3788749575615,687.8053767839447Z" fill="#e9694f" stroke="#e9694f"></path><path d="M338.3788749575615,687.8053767839447L284.78488677646965,781.7317219916731L387.841210514307,728.0594581505284Z" fill="#e6654b" stroke="#e6654b"></path><path d="M338.3788749575615,687.8053767839447L387.841210514307,728.0594581505284L474.67719512060285,688.4158580098301Z" fill="#ea6045" stroke="#ea6045"></path><path d="M474.67719512060285,688.4158580098301L387.841210514307,728.0594581505284L453.674570703879,798.6071016872302Z" fill="#e55d43" stroke="#e55d43"></path><path d="M474.67719512060285,688.4158580098301L453.674570703879,798.6071016872302L558.3472038153559,794.1408941755071Z" fill="#e3583f" stroke="#e3583f"></path><path d="M474.67719512060285,688.4158580098301L558.3472038153559,794.1408941755071L537.7527328208089,662.7470020903274Z" fill="#e8563d" stroke="#e8563d"></path><path d="M537.7527328208089,662.7470020903274L558.3472038153559,794.1408941755071L647.9092775145546,749.4990444276482Z" fill="#e6513c" stroke="#e6513c"></path><path d="M537.7527328208089,662.7470020903274L647.9092775145546,749.4990444276482L662.0909864315763,679.6328542521223Z" fill="#ea4f3a" stroke="#ea4f3a"></path><path d="M662.0909864315763,679.6328542521223L647.9092775145546,749.4990444276482L790.0542209856212,748.5309435753152Z" fill="#e64837" stroke="#e64837"></path><path d="M662.0909864315763,679.6328542521223L790.0542209856212,748.5309435753152L743.2329495903105,613.8256748439744Z" fill="#eb4535" stroke="#eb4535"></path><path d="M743.2329495903105,613.8256748439744L790.0542209856212,748.5309435753152L826.4652903191745,695.9456294542179Z" fill="#e93b32" stroke="#e93b32"></path><path d="M826.4652903191745,695.9456294542179L790.0542209856212,748.5309435753152L824.3726022075862,750.9887864813209Z" fill="#e33731" stroke="#e33731"></path><path d="M826.4652903191745,695.9456294542179L824.3726022075862,750.9887864813209L924.5805874466896,771.5607515303418Z" fill="#e12f2f" stroke="#e12f2f"></path><path d="M826.4652903191745,695.9456294542179L924.5805874466896,771.5607515303418L995.9976396057755,691.2544601364061Z" fill="#e2252b" stroke="#e2252b"></path><path d="M995.9976396057755,691.2544601364061L924.5805874466896,771.5607515303418L1034.9578031571582,777.5164186256006Z" fill="#db1b2a" stroke="#db1b2a"></path><path d="M995.9976396057755,691.2544601364061L1034.9578031571582,777.5164186256006L1111.7824726738036,699.1906571900472Z" fill="#d7132a" stroke="#d7132a"></path><path d="M995.9976396057755,691.2544601364061L1111.7824726738036,699.1906571900472L1004.9340963130817,669.1966480808333Z" fill="#dc1429" stroke="#dc1429"></path><path d="M1111.7824726738036,699.1906571900472L1034.9578031571582,777.5164186256006L1162.8000757889822,749.0607575513422Z" fill="#cf0c2b" stroke="#cf0c2b"></path><path d="M1111.7824726738036,699.1906571900472L1162.8000757889822,749.0607575513422L1297.738223313354,678.0778244370595Z" fill="#c9012b" stroke="#c9012b"></path><path d="M1297.738223313354,678.0778244370595L1162.8000757889822,749.0607575513422L1291.9612399535254,701.3915764866397Z" fill="#c3002c" stroke="#c3002c"></path><path d="M1297.738223313354,678.0778244370595L1291.9612399535254,701.3915764866397L1326.4951585326344,722.2430799854919Z" fill="#be002d" stroke="#be002d"></path><path d="M1297.738223313354,678.0778244370595L1326.4951585326344,722.2430799854919L1404.747049906291,645.3955134609714Z" fill="#bc002d" stroke="#bc002d"></path><path d="M1297.738223313354,678.0778244370595L1404.747049906291,645.3955134609714L1341.022777138278,611.8150031892583Z" fill="#c0012c" stroke="#c0012c"></path><path d="M1404.747049906291,645.3955134609714L1326.4951585326344,722.2430799854919L1448.9178330404684,759.7089779796079Z" fill="#b4002e" stroke="#b4002e"></path><path d="M1404.747049906291,645.3955134609714L1448.9178330404684,759.7089779796079L1502.2849520901218,652.5882589863613Z" fill="#b0002e" stroke="#b0002e"></path><path d="M1502.2849520901218,652.5882589863613L1448.9178330404684,759.7089779796079L1551.3736246386543,760.794851812534Z" fill="#a70030" stroke="#a70030"></path><path d="M-60.83690878003836,716.0806269384921L-95.68284661509097,896.2189902318642L8.653231686912477,819.9532815488055Z" fill="#de807a" stroke="#de807a"></path><path d="M-60.83690878003836,716.0806269384921L8.653231686912477,819.9532815488055L35.49611864145845,704.5289438217878Z" fill="#e58073" stroke="#e58073"></path><path d="M35.49611864145845,704.5289438217878L8.653231686912477,819.9532815488055L164.81738400179893,789.2235478619114Z" fill="#e27a6b" stroke="#e27a6b"></path><path d="M164.81738400179893,789.2235478619114L8.653231686912477,819.9532815488055L192.4828170100227,829.0511802537367Z" fill="#dd7665" stroke="#dd7665"></path><path d="M164.81738400179893,789.2235478619114L192.4828170100227,829.0511802537367L284.78488677646965,781.7317219916731Z" fill="#de6f59" stroke="#de6f59"></path><path d="M284.78488677646965,781.7317219916731L192.4828170100227,829.0511802537367L250.63636486884207,885.0540765561163Z" fill="#db6d57" stroke="#db6d57"></path><path d="M284.78488677646965,781.7317219916731L250.63636486884207,885.0540765561163L306.15453547798097,873.3752689789981Z" fill="#d96954" stroke="#d96954"></path><path d="M284.78488677646965,781.7317219916731L306.15453547798097,873.3752689789981L387.841210514307,728.0594581505284Z" fill="#df664e" stroke="#df664e"></path><path d="M387.841210514307,728.0594581505284L306.15453547798097,873.3752689789981L453.674570703879,798.6071016872302Z" fill="#de6149" stroke="#de6149"></path><path d="M453.674570703879,798.6071016872302L306.15453547798097,873.3752689789981L481.9760594982654,845.8411163883284Z" fill="#da5f48" stroke="#da5f48"></path><path d="M453.674570703879,798.6071016872302L481.9760594982654,845.8411163883284L558.3472038153559,794.1408941755071Z" fill="#dd5841" stroke="#dd5841"></path><path d="M558.3472038153559,794.1408941755071L481.9760594982654,845.8411163883284L565.4744792263955,818.0501769296825Z" fill="#dc553f" stroke="#dc553f"></path><path d="M558.3472038153559,794.1408941755071L565.4744792263955,818.0501769296825L647.9092775145546,749.4990444276482Z" fill="#e0513d" stroke="#e0513d"></path><path d="M647.9092775145546,749.4990444276482L565.4744792263955,818.0501769296825L638.9910356374457,883.6232832632959Z" fill="#dc4f3d" stroke="#dc4f3d"></path><path d="M647.9092775145546,749.4990444276482L638.9910356374457,883.6232832632959L749.2295985110104,892.7123514236882Z" fill="#d94a3b" stroke="#d94a3b"></path><path d="M647.9092775145546,749.4990444276482L749.2295985110104,892.7123514236882L790.0542209856212,748.5309435753152Z" fill="#de4538" stroke="#de4538"></path><path d="M790.0542209856212,748.5309435753152L749.2295985110104,892.7123514236882L819.57148804795,845.3233726788312Z" fill="#d83b36" stroke="#d83b36"></path><path d="M790.0542209856212,748.5309435753152L819.57148804795,845.3233726788312L824.3726022075862,750.9887864813209Z" fill="#dd3733" stroke="#dd3733"></path><path d="M824.3726022075862,750.9887864813209L819.57148804795,845.3233726788312L924.5805874466896,771.5607515303418Z" fill="#dc2f31" stroke="#dc2f31"></path><path d="M924.5805874466896,771.5607515303418L819.57148804795,845.3233726788312L995.9465231746435,829.1396800428629Z" fill="#d7262e" stroke="#d7262e"></path><path d="M924.5805874466896,771.5607515303418L995.9465231746435,829.1396800428629L1034.9578031571582,777.5164186256006Z" fill="#d61b2b" stroke="#d61b2b"></path><path d="M1034.9578031571582,777.5164186256006L995.9465231746435,829.1396800428629L1068.7809211201966,834.5223573036492Z" fill="#ce152c" stroke="#ce152c"></path><path d="M1034.9578031571582,777.5164186256006L1068.7809211201966,834.5223573036492L1162.8000757889822,749.0607575513422Z" fill="#cb0e2c" stroke="#cb0e2c"></path><path d="M1162.8000757889822,749.0607575513422L1068.7809211201966,834.5223573036492L1130.2619443507865,873.0899954680353Z" fill="#c40a2d" stroke="#c40a2d"></path><path d="M1162.8000757889822,749.0607575513422L1130.2619443507865,873.0899954680353L1274.6904435101897,835.2543983841315Z" fill="#bd022e" stroke="#bd022e"></path><path d="M1162.8000757889822,749.0607575513422L1274.6904435101897,835.2543983841315L1291.9612399535254,701.3915764866397Z" fill="#be002d" stroke="#be002d"></path><path d="M1291.9612399535254,701.3915764866397L1274.6904435101897,835.2543983841315L1315.454865153879,802.6282910024747Z" fill="#b6002e" stroke="#b6002e"></path><path d="M1291.9612399535254,701.3915764866397L1315.454865153879,802.6282910024747L1326.4951585326344,722.2430799854919Z" fill="#b9002e" stroke="#b9002e"></path><path d="M1326.4951585326344,722.2430799854919L1315.454865153879,802.6282910024747L1448.9178330404684,759.7089779796079Z" fill="#b1002f" stroke="#b1002f"></path><path d="M1448.9178330404684,759.7089779796079L1315.454865153879,802.6282910024747L1417.777683841996,830.5216356413439Z" fill="#aa0030" stroke="#aa0030"></path><path d="M1448.9178330404684,759.7089779796079L1417.777683841996,830.5216356413439L1508.4273730171844,875.041493633762Z" fill="#a00031" stroke="#a00031"></path><path d="M1448.9178330404684,759.7089779796079L1508.4273730171844,875.041493633762L1551.3736246386543,760.794851812534Z" fill="#9e0032" stroke="#9e0032"></path><path d="M-95.68284661509097,896.2189902318642L749.2295985110104,892.7123514236882L250.63636486884207,885.0540765561163Z" fill="#d46853" stroke="#d46853"></path><path d="M-95.68284661509097,896.2189902318642L250.63636486884207,885.0540765561163L8.653231686912477,819.9532815488055Z" fill="#d77b6f" stroke="#d77b6f"></path><path d="M8.653231686912477,819.9532815488055L250.63636486884207,885.0540765561163L192.4828170100227,829.0511802537367Z" fill="#d97462" stroke="#d97462"></path><path d="M250.63636486884207,885.0540765561163L749.2295985110104,892.7123514236882L638.9910356374457,883.6232832632959Z" fill="#d45441" stroke="#d45441"></path><path d="M250.63636486884207,885.0540765561163L638.9910356374457,883.6232832632959L306.15453547798097,873.3752689789981Z" fill="#d5604a" stroke="#d5604a"></path><path d="M306.15453547798097,873.3752689789981L638.9910356374457,883.6232832632959L481.9760594982654,845.8411163883284Z" fill="#d75a43" stroke="#d75a43"></path><path d="M481.9760594982654,845.8411163883284L638.9910356374457,883.6232832632959L565.4744792263955,818.0501769296825Z" fill="#d95340" stroke="#d95340"></path><path d="M749.2295985110104,892.7123514236882L1508.4273730171844,875.041493633762L1130.2619443507865,873.0899954680353Z" fill="#bc092f" stroke="#bc092f"></path><path d="M749.2295985110104,892.7123514236882L1130.2619443507865,873.0899954680353L995.9465231746435,829.1396800428629Z" fill="#d01e2d" stroke="#d01e2d"></path><path d="M749.2295985110104,892.7123514236882L995.9465231746435,829.1396800428629L819.57148804795,845.3233726788312Z" fill="#d43032" stroke="#d43032"></path><path d="M995.9465231746435,829.1396800428629L1130.2619443507865,873.0899954680353L1068.7809211201966,834.5223573036492Z" fill="#c7112e" stroke="#c7112e"></path><path d="M1130.2619443507865,873.0899954680353L1508.4273730171844,875.041493633762L1274.6904435101897,835.2543983841315Z" fill="#ac0031" stroke="#ac0031"></path><path d="M1274.6904435101897,835.2543983841315L1508.4273730171844,875.041493633762L1417.777683841996,830.5216356413439Z" fill="#a30032" stroke="#a30032"></path><path d="M1274.6904435101897,835.2543983841315L1417.777683841996,830.5216356413439L1315.454865153879,802.6282910024747Z" fill="#ad0030" stroke="#ad0030"></path></g></svg>