<svg width="1436" height="783" xmlns="http://www.w3.org/2000/svg"><g><path d="M-110.46150814392604,-118.00677769235335L-142.48864674242213,52.75197686976753L-32.3679729597643,-68.24055034434423Z" fill="#88e3de" stroke="#88e3de"></path><path d="M-110.46150814392604,-118.00677769235335L-32.3679729597643,-68.24055034434423L93.78774328273721,-108.12381180701777Z" fill="#88e6df" stroke="#88e6df"></path><path d="M-110.46150814392604,-118.00677769235335L93.78774328273721,-108.12381180701777L413.637756111566,-123.08907481026836Z" fill="#97eddd" stroke="#97eddd"></path><path d="M-110.46150814392604,-118.00677769235335L413.637756111566,-123.08907481026836L939.5373522455338,-138.67354339337908Z" fill="#b7fad8" stroke="#b7fad8"></path><path d="M-32.3679729597643,-68.24055034434423L-142.48864674242213,52.75197686976753L12.398630969692022,47.21282824059017Z" fill="#96e5db" stroke="#96e5db"></path><path d="M-32.3679729597643,-68.24055034434423L12.398630969692022,47.21282824059017L68.1568740378134,-15.727621568366885Z" fill="#9be8da" stroke="#9be8da"></path><path d="M-32.3679729597643,-68.24055034434423L68.1568740378134,-15.727621568366885L93.78774328273721,-108.12381180701777Z" fill="#95e9dc" stroke="#95e9dc"></path><path d="M93.78774328273721,-108.12381180701777L68.1568740378134,-15.727621568366885L178.025291680824,-80.6769825448282Z" fill="#9decdb" stroke="#9decdb"></path><path d="M93.78774328273721,-108.12381180701777L178.025291680824,-80.6769825448282L301.0643741127569,-103.04320227354765Z" fill="#a1f0db" stroke="#a1f0db"></path><path d="M93.78774328273721,-108.12381180701777L301.0643741127569,-103.04320227354765L413.637756111566,-123.08907481026836Z" fill="#a8f4da" stroke="#a8f4da"></path><path d="M178.025291680824,-80.6769825448282L68.1568740378134,-15.727621568366885L230.40590575779788,49.299779889406636Z" fill="#abefd7" stroke="#abefd7"></path><path d="M178.025291680824,-80.6769825448282L230.40590575779788,49.299779889406636L328.4919195994735,-26.598230302333832Z" fill="#b5f3d6" stroke="#b5f3d6"></path><path d="M178.025291680824,-80.6769825448282L328.4919195994735,-26.598230302333832L301.0643741127569,-103.04320227354765Z" fill="#aff4d8" stroke="#aff4d8"></path><path d="M301.0643741127569,-103.04320227354765L328.4919195994735,-26.598230302333832L413.637756111566,-123.08907481026836Z" fill="#b6f7d7" stroke="#b6f7d7"></path><path d="M413.637756111566,-123.08907481026836L328.4919195994735,-26.598230302333832L463.934079046594,7.313125039217994Z" fill="#c3fad4" stroke="#c3fad4"></path><path d="M413.637756111566,-123.08907481026836L463.934079046594,7.313125039217994L534.5197837043088,-53.23683202150278Z" fill="#c9fdd3" stroke="#c9fdd3"></path><path d="M413.637756111566,-123.08907481026836L534.5197837043088,-53.23683202150278L640.5093274300452,-113.7617269041948Z" fill="#c0fad7" stroke="#c0fad7"></path><path d="M413.637756111566,-123.08907481026836L640.5093274300452,-113.7617269041948L939.5373522455338,-138.67354339337908Z" fill="#b2f0de" stroke="#b2f0de"></path><path d="M534.5197837043088,-53.23683202150278L463.934079046594,7.313125039217994L558.9167945028748,21.36253517237492Z" fill="#d0fbd2" stroke="#d0fbd2"></path><path d="M534.5197837043088,-53.23683202150278L558.9167945028748,21.36253517237492L640.5093274300452,-113.7617269041948Z" fill="#c5f6d6" stroke="#c5f6d6"></path><path d="M640.5093274300452,-113.7617269041948L558.9167945028748,21.36253517237492L600.3975082281977,45.9533480880782Z" fill="#c9f5d6" stroke="#c9f5d6"></path><path d="M640.5093274300452,-113.7617269041948L600.3975082281977,45.9533480880782L744.7279388050083,-62.8134851611685Z" fill="#c0f0da" stroke="#c0f0da"></path><path d="M640.5093274300452,-113.7617269041948L744.7279388050083,-62.8134851611685L832.5931857770775,-114.91206728387624Z" fill="#b2eadf" stroke="#b2eadf"></path><path d="M640.5093274300452,-113.7617269041948L832.5931857770775,-114.91206728387624L939.5373522455338,-138.67354339337908Z" fill="#a9e6e3" stroke="#a9e6e3"></path><path d="M744.7279388050083,-62.8134851611685L600.3975082281977,45.9533480880782L704.686785741942,90.614113638876Z" fill="#caefd8" stroke="#caefd8"></path><path d="M744.7279388050083,-62.8134851611685L704.686785741942,90.614113638876L779.6307218726724,11.910842754878104Z" fill="#c4ebdb" stroke="#c4ebdb"></path><path d="M744.7279388050083,-62.8134851611685L779.6307218726724,11.910842754878104L832.5931857770775,-114.91206728387624Z" fill="#b6e7df" stroke="#b6e7df"></path><path d="M832.5931857770775,-114.91206728387624L779.6307218726724,11.910842754878104L888.4021636634134,49.88723308662884Z" fill="#b9e4e0" stroke="#b9e4e0"></path><path d="M832.5931857770775,-114.91206728387624L888.4021636634134,49.88723308662884L959.0459276316687,22.084201764082536Z" fill="#b5e0e2" stroke="#b5e0e2"></path><path d="M832.5931857770775,-114.91206728387624L959.0459276316687,22.084201764082536L939.5373522455338,-138.67354339337908Z" fill="#a9dee5" stroke="#a9dee5"></path><path d="M939.5373522455338,-138.67354339337908L959.0459276316687,22.084201764082536L1094.4234085071366,-103.11337319202721Z" fill="#a5d8e9" stroke="#a5d8e9"></path><path d="M939.5373522455338,-138.67354339337908L1094.4234085071366,-103.11337319202721L1196.985441549914,-91.461537478026Z" fill="#99d2ee" stroke="#99d2ee"></path><path d="M939.5373522455338,-138.67354339337908L1196.985441549914,-91.461537478026L1573.8881322473753,-126.79801749414764Z" fill="#8cc7f5" stroke="#8cc7f5"></path><path d="M1094.4234085071366,-103.11337319202721L959.0459276316687,22.084201764082536L1069.5253482996486,9.976715551456437Z" fill="#aad5e8" stroke="#aad5e8"></path><path d="M1094.4234085071366,-103.11337319202721L1069.5253482996486,9.976715551456437L1201.054879972944,9.845031764125451Z" fill="#a4cfec" stroke="#a4cfec"></path><path d="M1094.4234085071366,-103.11337319202721L1201.054879972944,9.845031764125451L1196.985441549914,-91.461537478026Z" fill="#9bccef" stroke="#9bccef"></path><path d="M1196.985441549914,-91.461537478026L1201.054879972944,9.845031764125451L1223.986416173866,-57.339834277518094Z" fill="#9bc9f0" stroke="#9bc9f0"></path><path d="M1196.985441549914,-91.461537478026L1223.986416173866,-57.339834277518094L1329.532639455283,-63.2385294791311Z" fill="#93c6f3" stroke="#93c6f3"></path><path d="M1196.985441549914,-91.461537478026L1329.532639455283,-63.2385294791311L1573.8881322473753,-126.79801749414764Z" fill="#88bdf9" stroke="#88bdf9"></path><path d="M1223.986416173866,-57.339834277518094L1201.054879972944,9.845031764125451L1278.0209892394487,-33.255488297436386Z" fill="#9cc7f0" stroke="#9cc7f0"></path><path d="M1223.986416173866,-57.339834277518094L1278.0209892394487,-33.255488297436386L1329.532639455283,-63.2385294791311Z" fill="#95c4f3" stroke="#95c4f3"></path><path d="M1329.532639455283,-63.2385294791311L1278.0209892394487,-33.255488297436386L1349.5917177561205,53.82532176212408Z" fill="#98c1f3" stroke="#98c1f3"></path><path d="M1329.532639455283,-63.2385294791311L1349.5917177561205,53.82532176212408L1478.9298262260854,-82.27212210651487Z" fill="#91bcf7" stroke="#91bcf7"></path><path d="M1329.532639455283,-63.2385294791311L1478.9298262260854,-82.27212210651487L1573.8881322473753,-126.79801749414764Z" fill="#82b6fa" stroke="#82b6fa"></path><path d="M1478.9298262260854,-82.27212210651487L1349.5917177561205,53.82532176212408L1519.8714390781242,35.675105050904676Z" fill="#92b8f6" stroke="#92b8f6"></path><path d="M1478.9298262260854,-82.27212210651487L1519.8714390781242,35.675105050904676L1573.8881322473753,-126.79801749414764Z" fill="#83b2f9" stroke="#83b2f9"></path><path d="M1573.8881322473753,-126.79801749414764L1519.8714390781242,35.675105050904676L1628.4963864798192,36.2790198053699Z" fill="#86aff7" stroke="#86aff7"></path><path d="M-142.48864674242213,52.75197686976753L-139.0109942795243,908.0790901661385L-104.4941142143216,617.2186050098389Z" fill="#a9d2e6" stroke="#a9d2e6"></path><path d="M-142.48864674242213,52.75197686976753L-104.4941142143216,617.2186050098389L-97.1586477139499,513.0998995585833Z" fill="#b2dbdb" stroke="#b2dbdb"></path><path d="M-142.48864674242213,52.75197686976753L-97.1586477139499,513.0998995585833L-91.73372886143625,324.53256036154926Z" fill="#b7e2d4" stroke="#b7e2d4"></path><path d="M-142.48864674242213,52.75197686976753L-91.73372886143625,324.53256036154926L-119.88609892316163,118.98861454683356Z" fill="#a8e3d5" stroke="#a8e3d5"></path><path d="M-142.48864674242213,52.75197686976753L-119.88609892316163,118.98861454683356L12.398630969692022,47.21282824059017Z" fill="#9de4d8" stroke="#9de4d8"></path><path d="M12.398630969692022,47.21282824059017L-119.88609892316163,118.98861454683356L15.98012437694706,138.909025589237Z" fill="#a8e7d6" stroke="#a8e7d6"></path><path d="M12.398630969692022,47.21282824059017L15.98012437694706,138.909025589237L91.33782355347648,80.91258365195245Z" fill="#afead5" stroke="#afead5"></path><path d="M12.398630969692022,47.21282824059017L91.33782355347648,80.91258365195245L68.1568740378134,-15.727621568366885Z" fill="#a8ead8" stroke="#a8ead8"></path><path d="M68.1568740378134,-15.727621568366885L91.33782355347648,80.91258365195245L230.40590575779788,49.299779889406636Z" fill="#b1eed6" stroke="#b1eed6"></path><path d="M230.40590575779788,49.299779889406636L91.33782355347648,80.91258365195245L239.04058845946565,121.08137933304533Z" fill="#bff1d2" stroke="#bff1d2"></path><path d="M230.40590575779788,49.299779889406636L239.04058845946565,121.08137933304533L280.79579037381336,150.72549131931737Z" fill="#cbf4d0" stroke="#cbf4d0"></path><path d="M230.40590575779788,49.299779889406636L280.79579037381336,150.72549131931737L328.4919195994735,-26.598230302333832Z" fill="#c6f5d2" stroke="#c6f5d2"></path><path d="M328.4919195994735,-26.598230302333832L280.79579037381336,150.72549131931737L458.20129330735654,156.38680388918146Z" fill="#d5f9ce" stroke="#d5f9ce"></path><path d="M328.4919195994735,-26.598230302333832L458.20129330735654,156.38680388918146L463.934079046594,7.313125039217994Z" fill="#d4fbd0" stroke="#d4fbd0"></path><path d="M463.934079046594,7.313125039217994L458.20129330735654,156.38680388918146L496.5570825454779,69.9386137991678Z" fill="#e0fecd" stroke="#e0fecd"></path><path d="M463.934079046594,7.313125039217994L496.5570825454779,69.9386137991678L558.9167945028748,21.36253517237492Z" fill="#d7fcd0" stroke="#d7fcd0"></path><path d="M558.9167945028748,21.36253517237492L496.5570825454779,69.9386137991678L600.3975082281977,45.9533480880782Z" fill="#d6f9d1" stroke="#d6f9d1"></path><path d="M600.3975082281977,45.9533480880782L496.5570825454779,69.9386137991678L619.5459430827759,188.95225227810442Z" fill="#def8d0" stroke="#def8d0"></path><path d="M600.3975082281977,45.9533480880782L619.5459430827759,188.95225227810442L657.2576247481629,122.4542366003152Z" fill="#def4d1" stroke="#def4d1"></path><path d="M600.3975082281977,45.9533480880782L657.2576247481629,122.4542366003152L704.686785741942,90.614113638876Z" fill="#d6f2d3" stroke="#d6f2d3"></path><path d="M779.6307218726724,11.910842754878104L704.686785741942,90.614113638876L853.8727485900745,92.05914020189084Z" fill="#cae9da" stroke="#cae9da"></path><path d="M779.6307218726724,11.910842754878104L853.8727485900745,92.05914020189084L888.4021636634134,49.88723308662884Z" fill="#c4e4dc" stroke="#c4e4dc"></path><path d="M888.4021636634134,49.88723308662884L853.8727485900745,92.05914020189084L969.994440365117,105.43774969642982Z" fill="#c4e0de" stroke="#c4e0de"></path><path d="M888.4021636634134,49.88723308662884L969.994440365117,105.43774969642982L959.0459276316687,22.084201764082536Z" fill="#bedde1" stroke="#bedde1"></path><path d="M959.0459276316687,22.084201764082536L969.994440365117,105.43774969642982L1034.7896422632039,92.1116520895157Z" fill="#bddae1" stroke="#bddae1"></path><path d="M959.0459276316687,22.084201764082536L1034.7896422632039,92.1116520895157L1069.5253482996486,9.976715551456437Z" fill="#b6d7e4" stroke="#b6d7e4"></path><path d="M1069.5253482996486,9.976715551456437L1034.7896422632039,92.1116520895157L1201.9515086116735,138.2182484108489Z" fill="#b7d1e6" stroke="#b7d1e6"></path><path d="M1069.5253482996486,9.976715551456437L1201.9515086116735,138.2182484108489L1201.054879972944,9.845031764125451Z" fill="#afcde9" stroke="#afcde9"></path><path d="M1201.054879972944,9.845031764125451L1201.9515086116735,138.2182484108489L1255.0703364959918,141.03404910420068Z" fill="#b1c9ea" stroke="#b1c9ea"></path><path d="M1201.054879972944,9.845031764125451L1255.0703364959918,141.03404910420068L1349.5917177561205,53.82532176212408Z" fill="#aac5ed" stroke="#aac5ed"></path><path d="M1201.054879972944,9.845031764125451L1349.5917177561205,53.82532176212408L1278.0209892394487,-33.255488297436386Z" fill="#9fc4f0" stroke="#9fc4f0"></path><path d="M1349.5917177561205,53.82532176212408L1255.0703364959918,141.03404910420068L1291.6274567635264,195.57104365085252Z" fill="#b2c3ec" stroke="#b2c3ec"></path><path d="M1349.5917177561205,53.82532176212408L1291.6274567635264,195.57104365085252L1417.3055455775466,149.5132612530142Z" fill="#aec0ee" stroke="#aec0ee"></path><path d="M1349.5917177561205,53.82532176212408L1417.3055455775466,149.5132612530142L1519.8714390781242,35.675105050904676Z" fill="#a1baf3" stroke="#a1baf3"></path><path d="M1519.8714390781242,35.675105050904676L1417.3055455775466,149.5132612530142L1523.1324596109334,145.18875907058828Z" fill="#a2b6f1" stroke="#a2b6f1"></path><path d="M1519.8714390781242,35.675105050904676L1523.1324596109334,145.18875907058828L1558.865199823631,113.68285803240724Z" fill="#9db2f2" stroke="#9db2f2"></path><path d="M1519.8714390781242,35.675105050904676L1558.865199823631,113.68285803240724L1628.4963864798192,36.2790198053699Z" fill="#94b0f3" stroke="#94b0f3"></path><path d="M1628.4963864798192,36.2790198053699L1558.865199823631,113.68285803240724L1538.455361732049,217.340505796019Z" fill="#9eaff1" stroke="#9eaff1"></path><path d="M1628.4963864798192,36.2790198053699L1538.455361732049,217.340505796019L1587.2425558627583,350.524209595751Z" fill="#aaafed" stroke="#aaafed"></path><path d="M1628.4963864798192,36.2790198053699L1587.2425558627583,350.524209595751L1616.8068799155299,717.2402887383942Z" fill="#ada7f3" stroke="#ada7f3"></path><path d="M-119.88609892316163,118.98861454683356L-91.73372886143625,324.53256036154926L-67.90931139956228,196.0472478158772Z" fill="#b3e4d2" stroke="#b3e4d2"></path><path d="M-119.88609892316163,118.98861454683356L-67.90931139956228,196.0472478158772L15.98012437694706,138.909025589237Z" fill="#ade6d4" stroke="#ade6d4"></path><path d="M15.98012437694706,138.909025589237L-67.90931139956228,196.0472478158772L-27.341965639498085,242.80182142159902Z" fill="#b8e8d2" stroke="#b8e8d2"></path><path d="M15.98012437694706,138.909025589237L-27.341965639498085,242.80182142159902L77.22306373878382,194.3576550623402Z" fill="#bdead1" stroke="#bdead1"></path><path d="M15.98012437694706,138.909025589237L77.22306373878382,194.3576550623402L91.33782355347648,80.91258365195245Z" fill="#b9ecd2" stroke="#b9ecd2"></path><path d="M91.33782355347648,80.91258365195245L77.22306373878382,194.3576550623402L180.74217859422788,184.84281012322754Z" fill="#c2eed1" stroke="#c2eed1"></path><path d="M91.33782355347648,80.91258365195245L180.74217859422788,184.84281012322754L239.04058845946565,121.08137933304533Z" fill="#c5f0d1" stroke="#c5f0d1"></path><path d="M239.04058845946565,121.08137933304533L180.74217859422788,184.84281012322754L280.79579037381336,150.72549131931737Z" fill="#d0f3ce" stroke="#d0f3ce"></path><path d="M280.79579037381336,150.72549131931737L180.74217859422788,184.84281012322754L237.19757619546726,303.64317764062434Z" fill="#daf3cb" stroke="#daf3cb"></path><path d="M280.79579037381336,150.72549131931737L237.19757619546726,303.64317764062434L361.35099899722263,198.65399319096468Z" fill="#e2f7ca" stroke="#e2f7ca"></path><path d="M280.79579037381336,150.72549131931737L361.35099899722263,198.65399319096468L458.20129330735654,156.38680388918146Z" fill="#e2facb" stroke="#e2facb"></path><path d="M458.20129330735654,156.38680388918146L361.35099899722263,198.65399319096468L452.63108921819367,196.06933478731662Z" fill="#ecfcc9" stroke="#ecfcc9"></path><path d="M458.20129330735654,156.38680388918146L452.63108921819367,196.06933478731662L513.7381503393408,242.14212268474512Z" fill="#f4ffc7" stroke="#f4ffc7"></path><path d="M458.20129330735654,156.38680388918146L513.7381503393408,242.14212268474512L619.5459430827759,188.95225227810442Z" fill="#f1fbc9" stroke="#f1fbc9"></path><path d="M458.20129330735654,156.38680388918146L619.5459430827759,188.95225227810442L496.5570825454779,69.9386137991678Z" fill="#e8fbcc" stroke="#e8fbcc"></path><path d="M657.2576247481629,122.4542366003152L619.5459430827759,188.95225227810442L735.8277226227801,182.29640670819208Z" fill="#e2f1d1" stroke="#e2f1d1"></path><path d="M657.2576247481629,122.4542366003152L735.8277226227801,182.29640670819208L704.686785741942,90.614113638876Z" fill="#dbefd3" stroke="#dbefd3"></path><path d="M704.686785741942,90.614113638876L735.8277226227801,182.29640670819208L853.8727485900745,92.05914020189084Z" fill="#d5ead6" stroke="#d5ead6"></path><path d="M853.8727485900745,92.05914020189084L735.8277226227801,182.29640670819208L809.8565738438629,242.14915167656727Z" fill="#dae8d5" stroke="#dae8d5"></path><path d="M853.8727485900745,92.05914020189084L809.8565738438629,242.14915167656727L966.7220844433177,193.9946849248372Z" fill="#d6e2d8" stroke="#d6e2d8"></path><path d="M853.8727485900745,92.05914020189084L966.7220844433177,193.9946849248372L969.994440365117,105.43774969642982Z" fill="#cbdedd" stroke="#cbdedd"></path><path d="M969.994440365117,105.43774969642982L966.7220844433177,193.9946849248372L1034.7896422632039,92.1116520895157Z" fill="#c7dadf" stroke="#c7dadf"></path><path d="M1034.7896422632039,92.1116520895157L966.7220844433177,193.9946849248372L1035.9886548423674,248.32312648184597Z" fill="#cdd8de" stroke="#cdd8de"></path><path d="M1034.7896422632039,92.1116520895157L1035.9886548423674,248.32312648184597L1134.7451724426355,178.5098022269085Z" fill="#c9d4e0" stroke="#c9d4e0"></path><path d="M1034.7896422632039,92.1116520895157L1134.7451724426355,178.5098022269085L1201.9515086116735,138.2182484108489Z" fill="#bed0e4" stroke="#bed0e4"></path><path d="M1201.9515086116735,138.2182484108489L1134.7451724426355,178.5098022269085L1197.217754748417,312.97848612070084Z" fill="#c7cce3" stroke="#c7cce3"></path><path d="M1201.9515086116735,138.2182484108489L1197.217754748417,312.97848612070084L1291.6274567635264,195.57104365085252Z" fill="#c5c9e5" stroke="#c5c9e5"></path><path d="M1201.9515086116735,138.2182484108489L1291.6274567635264,195.57104365085252L1255.0703364959918,141.03404910420068Z" fill="#bac7e8" stroke="#bac7e8"></path><path d="M1417.3055455775466,149.5132612530142L1291.6274567635264,195.57104365085252L1387.983511989005,235.79919618205167Z" fill="#b8bfeb" stroke="#b8bfeb"></path><path d="M1417.3055455775466,149.5132612530142L1387.983511989005,235.79919618205167L1456.4429483900312,190.8063290186692Z" fill="#b4bbed" stroke="#b4bbed"></path><path d="M1417.3055455775466,149.5132612530142L1456.4429483900312,190.8063290186692L1523.1324596109334,145.18875907058828Z" fill="#acb8ef" stroke="#acb8ef"></path><path d="M1523.1324596109334,145.18875907058828L1456.4429483900312,190.8063290186692L1538.455361732049,217.340505796019Z" fill="#acb5ee" stroke="#acb5ee"></path><path d="M1523.1324596109334,145.18875907058828L1538.455361732049,217.340505796019L1558.865199823631,113.68285803240724Z" fill="#a6b2ef" stroke="#a6b2ef"></path><path d="M-67.90931139956228,196.0472478158772L-91.73372886143625,324.53256036154926L-27.341965639498085,242.80182142159902Z" fill="#bee6d0" stroke="#bee6d0"></path><path d="M-27.341965639498085,242.80182142159902L-91.73372886143625,324.53256036154926L13.900703133549541,337.0054441737011Z" fill="#c0e5d2" stroke="#c0e5d2"></path><path d="M-27.341965639498085,242.80182142159902L13.900703133549541,337.0054441737011L77.22306373878382,194.3576550623402Z" fill="#c8eace" stroke="#c8eace"></path><path d="M77.22306373878382,194.3576550623402L13.900703133549541,337.0054441737011L119.11740376497619,323.7222447351087Z" fill="#cdebcf" stroke="#cdebcf"></path><path d="M77.22306373878382,194.3576550623402L119.11740376497619,323.7222447351087L180.74217859422788,184.84281012322754Z" fill="#d1efcd" stroke="#d1efcd"></path><path d="M180.74217859422788,184.84281012322754L119.11740376497619,323.7222447351087L237.19757619546726,303.64317764062434Z" fill="#dbf1cc" stroke="#dbf1cc"></path><path d="M361.35099899722263,198.65399319096468L237.19757619546726,303.64317764062434L320.38504711468704,322.61799538857304Z" fill="#eaf6c9" stroke="#eaf6c9"></path><path d="M361.35099899722263,198.65399319096468L320.38504711468704,322.61799538857304L400.7030643161852,303.69173639221117Z" fill="#f0f9c8" stroke="#f0f9c8"></path><path d="M361.35099899722263,198.65399319096468L400.7030643161852,303.69173639221117L452.63108921819367,196.06933478731662Z" fill="#f2fcc7" stroke="#f2fcc7"></path><path d="M452.63108921819367,196.06933478731662L400.7030643161852,303.69173639221117L513.7381503393408,242.14212268474512Z" fill="#fafec5" stroke="#fafec5"></path><path d="M513.7381503393408,242.14212268474512L400.7030643161852,303.69173639221117L563.0217296420597,295.9402598440647Z" fill="#fdfdc6" stroke="#fdfdc6"></path><path d="M513.7381503393408,242.14212268474512L563.0217296420597,295.9402598440647L619.5459430827759,188.95225227810442Z" fill="#f6f9c9" stroke="#f6f9c9"></path><path d="M619.5459430827759,188.95225227810442L563.0217296420597,295.9402598440647L712.3300449422095,332.3789833311457Z" fill="#f4f4cb" stroke="#f4f4cb"></path><path d="M619.5459430827759,188.95225227810442L712.3300449422095,332.3789833311457L735.8277226227801,182.29640670819208Z" fill="#ecf0ce" stroke="#ecf0ce"></path><path d="M735.8277226227801,182.29640670819208L712.3300449422095,332.3789833311457L809.8565738438629,242.14915167656727Z" fill="#ebecd0" stroke="#ebecd0"></path><path d="M809.8565738438629,242.14915167656727L712.3300449422095,332.3789833311457L869.8653064167593,309.46582163334824Z" fill="#e8e6d4" stroke="#e8e6d4"></path><path d="M809.8565738438629,242.14915167656727L869.8653064167593,309.46582163334824L966.7220844433177,193.9946849248372Z" fill="#e2e2d5" stroke="#e2e2d5"></path><path d="M966.7220844433177,193.9946849248372L869.8653064167593,309.46582163334824L954.4929378270172,341.987238842994Z" fill="#e0ddd8" stroke="#e0ddd8"></path><path d="M966.7220844433177,193.9946849248372L954.4929378270172,341.987238842994L1035.9886548423674,248.32312648184597Z" fill="#dddbd9" stroke="#dddbd9"></path><path d="M1035.9886548423674,248.32312648184597L954.4929378270172,341.987238842994L1093.0588770634495,298.3415411936585Z" fill="#d8d6de" stroke="#d8d6de"></path><path d="M1035.9886548423674,248.32312648184597L1093.0588770634495,298.3415411936585L1134.7451724426355,178.5098022269085Z" fill="#d3d3de" stroke="#d3d3de"></path><path d="M1134.7451724426355,178.5098022269085L1093.0588770634495,298.3415411936585L1197.217754748417,312.97848612070084Z" fill="#d2cfdf" stroke="#d2cfdf"></path><path d="M1291.6274567635264,195.57104365085252L1197.217754748417,312.97848612070084L1234.0054958884139,353.7283553078305Z" fill="#cac7e5" stroke="#cac7e5"></path><path d="M1291.6274567635264,195.57104365085252L1234.0054958884139,353.7283553078305L1387.983511989005,235.79919618205167Z" fill="#c7c4e6" stroke="#c7c4e6"></path><path d="M1387.983511989005,235.79919618205167L1234.0054958884139,353.7283553078305L1416.6309436492156,366.73242512508295Z" fill="#c1bdec" stroke="#c1bdec"></path><path d="M1387.983511989005,235.79919618205167L1416.6309436492156,366.73242512508295L1479.5081134792417,364.32593437377363Z" fill="#bbb7ef" stroke="#bbb7ef"></path><path d="M1387.983511989005,235.79919618205167L1479.5081134792417,364.32593437377363L1456.4429483900312,190.8063290186692Z" fill="#bebaea" stroke="#bebaea"></path><path d="M1456.4429483900312,190.8063290186692L1479.5081134792417,364.32593437377363L1538.455361732049,217.340505796019Z" fill="#bab6ea" stroke="#bab6ea"></path><path d="M1538.455361732049,217.340505796019L1479.5081134792417,364.32593437377363L1587.2425558627583,350.524209595751Z" fill="#b5b0ee" stroke="#b5b0ee"></path><path d="M-91.73372886143625,324.53256036154926L-97.1586477139499,513.0998995585833L-61.77519989316352,385.3846430359408Z" fill="#b4dcdc" stroke="#b4dcdc"></path><path d="M-91.73372886143625,324.53256036154926L-61.77519989316352,385.3846430359408L13.900703133549541,337.0054441737011Z" fill="#bce2d6" stroke="#bce2d6"></path><path d="M13.900703133549541,337.0054441737011L-61.77519989316352,385.3846430359408L35.62600082485005,404.33710524463095Z" fill="#c0e2d7" stroke="#c0e2d7"></path><path d="M13.900703133549541,337.0054441737011L35.62600082485005,404.33710524463095L102.58422517799772,393.05930264061317Z" fill="#c6e4d7" stroke="#c6e4d7"></path><path d="M13.900703133549541,337.0054441737011L102.58422517799772,393.05930264061317L119.11740376497619,323.7222447351087Z" fill="#cbe7d4" stroke="#cbe7d4"></path><path d="M119.11740376497619,323.7222447351087L102.58422517799772,393.05930264061317L241.77960740053095,433.1082406535279Z" fill="#d2e9d5" stroke="#d2e9d5"></path><path d="M119.11740376497619,323.7222447351087L241.77960740053095,433.1082406535279L237.19757619546726,303.64317764062434Z" fill="#d9ecd2" stroke="#d9ecd2"></path><path d="M237.19757619546726,303.64317764062434L241.77960740053095,433.1082406535279L320.38504711468704,322.61799538857304Z" fill="#e1efd0" stroke="#e1efd0"></path><path d="M320.38504711468704,322.61799538857304L241.77960740053095,433.1082406535279L294.12693396792747,470.99019318819046Z" fill="#e0edd4" stroke="#e0edd4"></path><path d="M320.38504711468704,322.61799538857304L294.12693396792747,470.99019318819046L432.3009890271351,470.5180006637238Z" fill="#e7efd4" stroke="#e7efd4"></path><path d="M320.38504711468704,322.61799538857304L432.3009890271351,470.5180006637238L400.7030643161852,303.69173639221117Z" fill="#eff4cf" stroke="#eff4cf"></path><path d="M400.7030643161852,303.69173639221117L432.3009890271351,470.5180006637238L487.86391034256667,469.5644691574853Z" fill="#f3f4d2" stroke="#f3f4d2"></path><path d="M400.7030643161852,303.69173639221117L487.86391034256667,469.5644691574853L563.0217296420597,295.9402598440647Z" fill="#faf9cc" stroke="#faf9cc"></path><path d="M563.0217296420597,295.9402598440647L487.86391034256667,469.5644691574853L629.7999380866531,441.80343291023746Z" fill="#f2f0d3" stroke="#f2f0d3"></path><path d="M563.0217296420597,295.9402598440647L629.7999380866531,441.80343291023746L669.7562837717123,365.2336223574821Z" fill="#f0efd3" stroke="#f0efd3"></path><path d="M563.0217296420597,295.9402598440647L669.7562837717123,365.2336223574821L712.3300449422095,332.3789833311457Z" fill="#f0efd1" stroke="#f0efd1"></path><path d="M669.7562837717123,365.2336223574821L629.7999380866531,441.80343291023746L768.3182887732983,430.7494834414683Z" fill="#e9e7d9" stroke="#e9e7d9"></path><path d="M669.7562837717123,365.2336223574821L768.3182887732983,430.7494834414683L712.3300449422095,332.3789833311457Z" fill="#e9e7d7" stroke="#e9e7d7"></path><path d="M712.3300449422095,332.3789833311457L768.3182887732983,430.7494834414683L869.8653064167593,309.46582163334824Z" fill="#e6e3d9" stroke="#e6e3d9"></path><path d="M869.8653064167593,309.46582163334824L768.3182887732983,430.7494834414683L853.1474065652583,443.4462056355551Z" fill="#e0dddd" stroke="#e0dddd"></path><path d="M869.8653064167593,309.46582163334824L853.1474065652583,443.4462056355551L954.4929378270172,341.987238842994Z" fill="#dedbde" stroke="#dedbde"></path><path d="M954.4929378270172,341.987238842994L853.1474065652583,443.4462056355551L973.2437016663607,442.27571634342894Z" fill="#d9d5e3" stroke="#d9d5e3"></path><path d="M954.4929378270172,341.987238842994L973.2437016663607,442.27571634342894L1081.4235068217386,390.7176653109491Z" fill="#d5d1e4" stroke="#d5d1e4"></path><path d="M954.4929378270172,341.987238842994L1081.4235068217386,390.7176653109491L1093.0588770634495,298.3415411936585Z" fill="#d4d2e2" stroke="#d4d2e2"></path><path d="M1093.0588770634495,298.3415411936585L1081.4235068217386,390.7176653109491L1197.217754748417,312.97848612070084Z" fill="#cfcce5" stroke="#cfcce5"></path><path d="M1197.217754748417,312.97848612070084L1081.4235068217386,390.7176653109491L1234.0054958884139,353.7283553078305Z" fill="#cbc7e8" stroke="#cbc7e8"></path><path d="M1234.0054958884139,353.7283553078305L1081.4235068217386,390.7176653109491L1167.665453319205,473.1805110652931Z" fill="#c9c5ec" stroke="#c9c5ec"></path><path d="M1234.0054958884139,353.7283553078305L1167.665453319205,473.1805110652931L1310.421170463087,424.54763307934627Z" fill="#c3bff0" stroke="#c3bff0"></path><path d="M1234.0054958884139,353.7283553078305L1310.421170463087,424.54763307934627L1416.6309436492156,366.73242512508295Z" fill="#c0bbf0" stroke="#c0bbf0"></path><path d="M1416.6309436492156,366.73242512508295L1310.421170463087,424.54763307934627L1401.1140604387037,411.8027476419229Z" fill="#bbb6f4" stroke="#bbb6f4"></path><path d="M1416.6309436492156,366.73242512508295L1401.1140604387037,411.8027476419229L1479.5081134792417,364.32593437377363Z" fill="#b8b3f4" stroke="#b8b3f4"></path><path d="M1479.5081134792417,364.32593437377363L1401.1140604387037,411.8027476419229L1462.2901167476084,464.99277830007486Z" fill="#b5b0f7" stroke="#b5b0f7"></path><path d="M1479.5081134792417,364.32593437377363L1462.2901167476084,464.99277830007486L1544.014515124727,472.73616204736754Z" fill="#b1abf8" stroke="#b1abf8"></path><path d="M1479.5081134792417,364.32593437377363L1544.014515124727,472.73616204736754L1587.2425558627583,350.524209595751Z" fill="#b0aaf5" stroke="#b0aaf5"></path><path d="M1587.2425558627583,350.524209595751L1544.014515124727,472.73616204736754L1588.0008459964301,523.0217778508086Z" fill="#aba4f9" stroke="#aba4f9"></path><path d="M1587.2425558627583,350.524209595751L1588.0008459964301,523.0217778508086L1616.8068799155299,717.2402887383942Z" fill="#a59eff" stroke="#a59eff"></path><path d="M-61.77519989316352,385.3846430359408L-97.1586477139499,513.0998995585833L35.62600082485005,404.33710524463095Z" fill="#b8dcdd" stroke="#b8dcdd"></path><path d="M35.62600082485005,404.33710524463095L-97.1586477139499,513.0998995585833L41.88723400468007,564.9805992806796Z" fill="#b9dae1" stroke="#b9dae1"></path><path d="M35.62600082485005,404.33710524463095L41.88723400468007,564.9805992806796L71.41924161231145,567.3434083454777Z" fill="#bfdce1" stroke="#bfdce1"></path><path d="M35.62600082485005,404.33710524463095L71.41924161231145,567.3434083454777L102.58422517799772,393.05930264061317Z" fill="#c4e0dc" stroke="#c4e0dc"></path><path d="M102.58422517799772,393.05930264061317L71.41924161231145,567.3434083454777L201.2510988570284,496.9972230424173Z" fill="#c9e1de" stroke="#c9e1de"></path><path d="M102.58422517799772,393.05930264061317L201.2510988570284,496.9972230424173L241.77960740053095,433.1082406535279Z" fill="#d2e6d9" stroke="#d2e6d9"></path><path d="M241.77960740053095,433.1082406535279L201.2510988570284,496.9972230424173L294.12693396792747,470.99019318819046Z" fill="#d9e8da" stroke="#d9e8da"></path><path d="M294.12693396792747,470.99019318819046L201.2510988570284,496.9972230424173L335.6033948541153,563.2805813977029Z" fill="#dae6dc" stroke="#dae6dc"></path><path d="M294.12693396792747,470.99019318819046L335.6033948541153,563.2805813977029L432.3009890271351,470.5180006637238Z" fill="#e3ebda" stroke="#e3ebda"></path><path d="M432.3009890271351,470.5180006637238L335.6033948541153,563.2805813977029L401.2366050120909,579.9241125152912Z" fill="#e6eadb" stroke="#e6eadb"></path><path d="M432.3009890271351,470.5180006637238L401.2366050120909,579.9241125152912L512.0423852151725,555.0695551407989Z" fill="#edecda" stroke="#edecda"></path><path d="M432.3009890271351,470.5180006637238L512.0423852151725,555.0695551407989L487.86391034256667,469.5644691574853Z" fill="#f3f0d7" stroke="#f3f0d7"></path><path d="M487.86391034256667,469.5644691574853L512.0423852151725,555.0695551407989L645.853588898899,512.4258846219163Z" fill="#edeadb" stroke="#edeadb"></path><path d="M487.86391034256667,469.5644691574853L645.853588898899,512.4258846219163L629.7999380866531,441.80343291023746Z" fill="#eceada" stroke="#eceada"></path><path d="M629.7999380866531,441.80343291023746L645.853588898899,512.4258846219163L768.3182887732983,430.7494834414683Z" fill="#e6e4dd" stroke="#e6e4dd"></path><path d="M768.3182887732983,430.7494834414683L645.853588898899,512.4258846219163L717.0774605951738,538.9378601836506Z" fill="#e3e0e1" stroke="#e3e0e1"></path><path d="M768.3182887732983,430.7494834414683L717.0774605951738,538.9378601836506L853.1474065652583,443.4462056355551Z" fill="#dfdce2" stroke="#dfdce2"></path><path d="M853.1474065652583,443.4462056355551L717.0774605951738,538.9378601836506L878.0455093295313,556.7921055585612Z" fill="#dbd7e6" stroke="#dbd7e6"></path><path d="M853.1474065652583,443.4462056355551L878.0455093295313,556.7921055585612L973.2437016663607,442.27571634342894Z" fill="#d7d3e7" stroke="#d7d3e7"></path><path d="M973.2437016663607,442.27571634342894L878.0455093295313,556.7921055585612L998.1334484810941,493.13057524268515Z" fill="#d3ceea" stroke="#d3ceea"></path><path d="M973.2437016663607,442.27571634342894L998.1334484810941,493.13057524268515L1081.4235068217386,390.7176653109491Z" fill="#d1cde9" stroke="#d1cde9"></path><path d="M1081.4235068217386,390.7176653109491L998.1334484810941,493.13057524268515L1097.1639116934966,551.7004411038943Z" fill="#ccc7ed" stroke="#ccc7ed"></path><path d="M1081.4235068217386,390.7176653109491L1097.1639116934966,551.7004411038943L1167.665453319205,473.1805110652931Z" fill="#c9c4ef" stroke="#c9c4ef"></path><path d="M1167.665453319205,473.1805110652931L1097.1639116934966,551.7004411038943L1188.8866132928524,565.514355879277Z" fill="#c3bef5" stroke="#c3bef5"></path><path d="M1167.665453319205,473.1805110652931L1188.8866132928524,565.514355879277L1308.3590499241836,548.2146964373533Z" fill="#beb9f8" stroke="#beb9f8"></path><path d="M1167.665453319205,473.1805110652931L1308.3590499241836,548.2146964373533L1310.421170463087,424.54763307934627Z" fill="#beb9f6" stroke="#beb9f6"></path><path d="M1310.421170463087,424.54763307934627L1308.3590499241836,548.2146964373533L1344.9396761052776,523.7244247004855Z" fill="#b9b4fa" stroke="#b9b4fa"></path><path d="M1310.421170463087,424.54763307934627L1344.9396761052776,523.7244247004855L1401.1140604387037,411.8027476419229Z" fill="#b9b4f7" stroke="#b9b4f7"></path><path d="M1401.1140604387037,411.8027476419229L1344.9396761052776,523.7244247004855L1462.2901167476084,464.99277830007486Z" fill="#b6b0fa" stroke="#b6b0fa"></path><path d="M1462.2901167476084,464.99277830007486L1344.9396761052776,523.7244247004855L1483.097274628235,499.49198121088557Z" fill="#b2acfd" stroke="#b2acfd"></path><path d="M1462.2901167476084,464.99277830007486L1483.097274628235,499.49198121088557L1544.014515124727,472.73616204736754Z" fill="#afa8fc" stroke="#afa8fc"></path><path d="M1544.014515124727,472.73616204736754L1483.097274628235,499.49198121088557L1588.0008459964301,523.0217778508086Z" fill="#aba4fd" stroke="#aba4fd"></path><path d="M-97.1586477139499,513.0998995585833L-104.4941142143216,617.2186050098389L41.88723400468007,564.9805992806796Z" fill="#afd4e4" stroke="#afd4e4"></path><path d="M41.88723400468007,564.9805992806796L-104.4941142143216,617.2186050098389L-10.0235793099273,673.441896578297Z" fill="#b0d2e4" stroke="#b0d2e4"></path><path d="M41.88723400468007,564.9805992806796L-10.0235793099273,673.441896578297L71.41924161231145,567.3434083454777Z" fill="#b8d5e3" stroke="#b8d5e3"></path><path d="M71.41924161231145,567.3434083454777L-10.0235793099273,673.441896578297L135.92519139871,614.6559732151218Z" fill="#bbd6e2" stroke="#bbd6e2"></path><path d="M71.41924161231145,567.3434083454777L135.92519139871,614.6559732151218L201.2510988570284,496.9972230424173Z" fill="#c6dde0" stroke="#c6dde0"></path><path d="M201.2510988570284,496.9972230424173L135.92519139871,614.6559732151218L212.20341986976564,661.2511372216977Z" fill="#cbdddf" stroke="#cbdddf"></path><path d="M201.2510988570284,496.9972230424173L212.20341986976564,661.2511372216977L335.6033948541153,563.2805813977029Z" fill="#d3e1de" stroke="#d3e1de"></path><path d="M335.6033948541153,563.2805813977029L212.20341986976564,661.2511372216977L358.01748172030784,606.3706621655729Z" fill="#d8e1dd" stroke="#d8e1dd"></path><path d="M335.6033948541153,563.2805813977029L358.01748172030784,606.3706621655729L401.2366050120909,579.9241125152912Z" fill="#e0e6dc" stroke="#e0e6dc"></path><path d="M401.2366050120909,579.9241125152912L358.01748172030784,606.3706621655729L380.13581037987024,682.9739220498595Z" fill="#e0e4db" stroke="#e0e4db"></path><path d="M401.2366050120909,579.9241125152912L380.13581037987024,682.9739220498595L504.44086176808923,645.0581871252507Z" fill="#e5e5da" stroke="#e5e5da"></path><path d="M401.2366050120909,579.9241125152912L504.44086176808923,645.0581871252507L512.0423852151725,555.0695551407989Z" fill="#edead9" stroke="#edead9"></path><path d="M512.0423852151725,555.0695551407989L504.44086176808923,645.0581871252507L622.7394419454504,627.8394969657529Z" fill="#e8e4dc" stroke="#e8e4dc"></path><path d="M512.0423852151725,555.0695551407989L622.7394419454504,627.8394969657529L645.853588898899,512.4258846219163Z" fill="#e7e4de" stroke="#e7e4de"></path><path d="M645.853588898899,512.4258846219163L622.7394419454504,627.8394969657529L717.3365768708754,611.7531014722772Z" fill="#e1dee1" stroke="#e1dee1"></path><path d="M645.853588898899,512.4258846219163L717.3365768708754,611.7531014722772L717.0774605951738,538.9378601836506Z" fill="#e1dde2" stroke="#e1dde2"></path><path d="M717.0774605951738,538.9378601836506L717.3365768708754,611.7531014722772L809.1468954144511,632.0237856230233Z" fill="#dbd7e4" stroke="#dbd7e4"></path><path d="M717.0774605951738,538.9378601836506L809.1468954144511,632.0237856230233L878.0455093295313,556.7921055585612Z" fill="#d8d4e6" stroke="#d8d4e6"></path><path d="M878.0455093295313,556.7921055585612L809.1468954144511,632.0237856230233L917.382280328311,642.9975275846664Z" fill="#d2cde9" stroke="#d2cde9"></path><path d="M878.0455093295313,556.7921055585612L917.382280328311,642.9975275846664L998.1334484810941,493.13057524268515Z" fill="#d0ccec" stroke="#d0ccec"></path><path d="M998.1334484810941,493.13057524268515L917.382280328311,642.9975275846664L1089.4572298997082,621.1000598059036Z" fill="#cac5ef" stroke="#cac5ef"></path><path d="M998.1334484810941,493.13057524268515L1089.4572298997082,621.1000598059036L1097.1639116934966,551.7004411038943Z" fill="#c8c3f1" stroke="#c8c3f1"></path><path d="M1097.1639116934966,551.7004411038943L1089.4572298997082,621.1000598059036L1126.4139086916111,615.7909473439213Z" fill="#c3bdf3" stroke="#c3bdf3"></path><path d="M1097.1639116934966,551.7004411038943L1126.4139086916111,615.7909473439213L1188.8866132928524,565.514355879277Z" fill="#c2bcf4" stroke="#c2bcf4"></path><path d="M1188.8866132928524,565.514355879277L1126.4139086916111,615.7909473439213L1275.9222809912171,641.5161246142816Z" fill="#bcb5f7" stroke="#bcb5f7"></path><path d="M1188.8866132928524,565.514355879277L1275.9222809912171,641.5161246142816L1308.3590499241836,548.2146964373533Z" fill="#b9b3f9" stroke="#b9b3f9"></path><path d="M1308.3590499241836,548.2146964373533L1275.9222809912171,641.5161246142816L1325.5892148579005,623.6002747097518Z" fill="#b5aefb" stroke="#b5aefb"></path><path d="M1308.3590499241836,548.2146964373533L1325.5892148579005,623.6002747097518L1344.9396761052776,523.7244247004855Z" fill="#b5affc" stroke="#b5affc"></path><path d="M1344.9396761052776,523.7244247004855L1325.5892148579005,623.6002747097518L1511.6816643613856,615.1801799738314Z" fill="#b0a9ff" stroke="#b0a9ff"></path><path d="M1344.9396761052776,523.7244247004855L1511.6816643613856,615.1801799738314L1483.097274628235,499.49198121088557Z" fill="#aea7ff" stroke="#aea7ff"></path><path d="M1483.097274628235,499.49198121088557L1511.6816643613856,615.1801799738314L1588.0008459964301,523.0217778508086Z" fill="#a9a2ff" stroke="#a9a2ff"></path><path d="M1588.0008459964301,523.0217778508086L1511.6816643613856,615.1801799738314L1573.9556344528683,676.1925391398836Z" fill="#a39cff" stroke="#a39cff"></path><path d="M1588.0008459964301,523.0217778508086L1573.9556344528683,676.1925391398836L1616.8068799155299,717.2402887383942Z" fill="#9f97ff" stroke="#9f97ff"></path><path d="M-104.4941142143216,617.2186050098389L-139.0109942795243,908.0790901661385L-51.842716755345464,750.9572689945344Z" fill="#a0c5e5" stroke="#a0c5e5"></path><path d="M-104.4941142143216,617.2186050098389L-51.842716755345464,750.9572689945344L-10.0235793099273,673.441896578297Z" fill="#a9cce4" stroke="#a9cce4"></path><path d="M-10.0235793099273,673.441896578297L-51.842716755345464,750.9572689945344L1.0176889004651457,767.5770304887556Z" fill="#abcbe4" stroke="#abcbe4"></path><path d="M-10.0235793099273,673.441896578297L1.0176889004651457,767.5770304887556L159.44994116667658,719.6947755361907Z" fill="#b4cfe2" stroke="#b4cfe2"></path><path d="M-10.0235793099273,673.441896578297L159.44994116667658,719.6947755361907L135.92519139871,614.6559732151218Z" fill="#bcd4e1" stroke="#bcd4e1"></path><path d="M135.92519139871,614.6559732151218L159.44994116667658,719.6947755361907L173.94692748086527,697.9457362019457Z" fill="#c2d6e0" stroke="#c2d6e0"></path><path d="M135.92519139871,614.6559732151218L173.94692748086527,697.9457362019457L212.20341986976564,661.2511372216977Z" fill="#c5d8e0" stroke="#c5d8e0"></path><path d="M212.20341986976564,661.2511372216977L173.94692748086527,697.9457362019457L245.46338453656062,803.8727578392718Z" fill="#c7d6df" stroke="#c7d6df"></path><path d="M212.20341986976564,661.2511372216977L245.46338453656062,803.8727578392718L330.2579348499421,742.0330066583119Z" fill="#ccd7de" stroke="#ccd7de"></path><path d="M212.20341986976564,661.2511372216977L330.2579348499421,742.0330066583119L358.01748172030784,606.3706621655729Z" fill="#d4dddd" stroke="#d4dddd"></path><path d="M358.01748172030784,606.3706621655729L330.2579348499421,742.0330066583119L380.13581037987024,682.9739220498595Z" fill="#dadfdc" stroke="#dadfdc"></path><path d="M380.13581037987024,682.9739220498595L330.2579348499421,742.0330066583119L437.19721994013526,760.6255323824007Z" fill="#dbdddb" stroke="#dbdddb"></path><path d="M380.13581037987024,682.9739220498595L437.19721994013526,760.6255323824007L504.44086176808923,645.0581871252507Z" fill="#e3e2da" stroke="#e3e2da"></path><path d="M504.44086176808923,645.0581871252507L437.19721994013526,760.6255323824007L561.2378885177895,704.1818535793573Z" fill="#e6e2da" stroke="#e6e2da"></path><path d="M504.44086176808923,645.0581871252507L561.2378885177895,704.1818535793573L622.7394419454504,627.8394969657529Z" fill="#e4e0dd" stroke="#e4e0dd"></path><path d="M622.7394419454504,627.8394969657529L561.2378885177895,704.1818535793573L617.9338311718311,786.4470130694099Z" fill="#dfdade" stroke="#dfdade"></path><path d="M622.7394419454504,627.8394969657529L617.9338311718311,786.4470130694099L733.5590725683141,788.3726773341186Z" fill="#dad4e1" stroke="#dad4e1"></path><path d="M622.7394419454504,627.8394969657529L733.5590725683141,788.3726773341186L717.3365768708754,611.7531014722772Z" fill="#dad6e2" stroke="#dad6e2"></path><path d="M717.3365768708754,611.7531014722772L733.5590725683141,788.3726773341186L809.1468954144511,632.0237856230233Z" fill="#d6d1e4" stroke="#d6d1e4"></path><path d="M809.1468954144511,632.0237856230233L733.5590725683141,788.3726773341186L894.4282436207868,708.1690313073341Z" fill="#d1cbe7" stroke="#d1cbe7"></path><path d="M809.1468954144511,632.0237856230233L894.4282436207868,708.1690313073341L917.382280328311,642.9975275846664Z" fill="#cfc9e9" stroke="#cfc9e9"></path><path d="M917.382280328311,642.9975275846664L894.4282436207868,708.1690313073341L915.7375181396492,722.2584377182648Z" fill="#cbc5eb" stroke="#cbc5eb"></path><path d="M917.382280328311,642.9975275846664L915.7375181396492,722.2584377182648L1013.3477387193125,779.0075840149075Z" fill="#c7c1ec" stroke="#c7c1ec"></path><path d="M917.382280328311,642.9975275846664L1013.3477387193125,779.0075840149075L1089.4572298997082,621.1000598059036Z" fill="#c5bfef" stroke="#c5bfef"></path><path d="M1089.4572298997082,621.1000598059036L1013.3477387193125,779.0075840149075L1153.923250575317,784.8525407910347Z" fill="#bdb6f2" stroke="#bdb6f2"></path><path d="M1089.4572298997082,621.1000598059036L1153.923250575317,784.8525407910347L1126.4139086916111,615.7909473439213Z" fill="#bdb7f4" stroke="#bdb7f4"></path><path d="M1126.4139086916111,615.7909473439213L1153.923250575317,784.8525407910347L1221.019643228501,721.304720811313Z" fill="#b9b2f5" stroke="#b9b2f5"></path><path d="M1126.4139086916111,615.7909473439213L1221.019643228501,721.304720811313L1275.9222809912171,641.5161246142816Z" fill="#b8b2f7" stroke="#b8b2f7"></path><path d="M1275.9222809912171,641.5161246142816L1221.019643228501,721.304720811313L1376.359928715974,771.5979871340096Z" fill="#b0a8fa" stroke="#b0a8fa"></path><path d="M1275.9222809912171,641.5161246142816L1376.359928715974,771.5979871340096L1325.5892148579005,623.6002747097518Z" fill="#afa8fc" stroke="#afa8fc"></path><path d="M1325.5892148579005,623.6002747097518L1376.359928715974,771.5979871340096L1475.7827577448916,725.262790096458Z" fill="#a9a1fe" stroke="#a9a1fe"></path><path d="M1325.5892148579005,623.6002747097518L1475.7827577448916,725.262790096458L1511.6816643613856,615.1801799738314Z" fill="#a9a1ff" stroke="#a9a1ff"></path><path d="M1511.6816643613856,615.1801799738314L1475.7827577448916,725.262790096458L1573.9556344528683,676.1925391398836Z" fill="#a39aff" stroke="#a39aff"></path><path d="M1573.9556344528683,676.1925391398836L1475.7827577448916,725.262790096458L1616.8068799155299,717.2402887383942Z" fill="#9e96ff" stroke="#9e96ff"></path><path d="M-51.842716755345464,750.9572689945344L-139.0109942795243,908.0790901661385L-54.21306299394928,849.8113769781776Z" fill="#9ec1e5" stroke="#9ec1e5"></path><path d="M-51.842716755345464,750.9572689945344L-54.21306299394928,849.8113769781776L1.0176889004651457,767.5770304887556Z" fill="#a6c6e4" stroke="#a6c6e4"></path><path d="M1.0176889004651457,767.5770304887556L-54.21306299394928,849.8113769781776L-19.89032214623876,894.1144334711134Z" fill="#a4c4e4" stroke="#a4c4e4"></path><path d="M1.0176889004651457,767.5770304887556L-19.89032214623876,894.1144334711134L131.27619979088195,809.7627748188097Z" fill="#adc7e2" stroke="#adc7e2"></path><path d="M1.0176889004651457,767.5770304887556L131.27619979088195,809.7627748188097L159.44994116667658,719.6947755361907Z" fill="#b7cee1" stroke="#b7cee1"></path><path d="M159.44994116667658,719.6947755361907L131.27619979088195,809.7627748188097L245.46338453656062,803.8727578392718Z" fill="#c0d1e0" stroke="#c0d1e0"></path><path d="M159.44994116667658,719.6947755361907L245.46338453656062,803.8727578392718L173.94692748086527,697.9457362019457Z" fill="#c4d4df" stroke="#c4d4df"></path><path d="M330.2579348499421,742.0330066583119L245.46338453656062,803.8727578392718L366.20015033870004,888.8452200079337Z" fill="#ced5dd" stroke="#ced5dd"></path><path d="M330.2579348499421,742.0330066583119L366.20015033870004,888.8452200079337L416.25056998687796,876.8406716687605Z" fill="#d3d6dc" stroke="#d3d6dc"></path><path d="M330.2579348499421,742.0330066583119L416.25056998687796,876.8406716687605L437.19721994013526,760.6255323824007Z" fill="#d9dadb" stroke="#d9dadb"></path><path d="M437.19721994013526,760.6255323824007L416.25056998687796,876.8406716687605L485.1104800903704,839.5331574534066Z" fill="#dddada" stroke="#dddada"></path><path d="M437.19721994013526,760.6255323824007L485.1104800903704,839.5331574534066L561.2378885177895,704.1818535793573Z" fill="#e3deda" stroke="#e3deda"></path><path d="M561.2378885177895,704.1818535793573L485.1104800903704,839.5331574534066L617.9338311718311,786.4470130694099Z" fill="#dfd9dc" stroke="#dfd9dc"></path><path d="M617.9338311718311,786.4470130694099L485.1104800903704,839.5331574534066L598.0213221325539,880.5988428206183Z" fill="#dad4dd" stroke="#dad4dd"></path><path d="M617.9338311718311,786.4470130694099L598.0213221325539,880.5988428206183L680.5303924519103,925.9135642205365Z" fill="#d4cee0" stroke="#d4cee0"></path><path d="M617.9338311718311,786.4470130694099L680.5303924519103,925.9135642205365L733.5590725683141,788.3726773341186Z" fill="#d3cde1" stroke="#d3cde1"></path><path d="M733.5590725683141,788.3726773341186L680.5303924519103,925.9135642205365L781.3136163563468,823.2940664456692Z" fill="#cfc8e4" stroke="#cfc8e4"></path><path d="M733.5590725683141,788.3726773341186L781.3136163563468,823.2940664456692L894.4282436207868,708.1690313073341Z" fill="#cec7e6" stroke="#cec7e6"></path><path d="M894.4282436207868,708.1690313073341L781.3136163563468,823.2940664456692L864.0123852842953,861.8322433007415Z" fill="#c9c3e8" stroke="#c9c3e8"></path><path d="M894.4282436207868,708.1690313073341L864.0123852842953,861.8322433007415L915.7375181396492,722.2584377182648Z" fill="#c8c2ea" stroke="#c8c2ea"></path><path d="M915.7375181396492,722.2584377182648L864.0123852842953,861.8322433007415L1013.3477387193125,779.0075840149075Z" fill="#c4bdec" stroke="#c4bdec"></path><path d="M1013.3477387193125,779.0075840149075L864.0123852842953,861.8322433007415L944.8344214470126,893.3023912645876Z" fill="#c0b9ec" stroke="#c0b9ec"></path><path d="M1013.3477387193125,779.0075840149075L944.8344214470126,893.3023912645876L1041.8575461383443,893.6367876839358Z" fill="#bcb4ee" stroke="#bcb4ee"></path><path d="M1013.3477387193125,779.0075840149075L1041.8575461383443,893.6367876839358L1153.923250575317,784.8525407910347Z" fill="#b9b1f1" stroke="#b9b1f1"></path><path d="M1153.923250575317,784.8525407910347L1041.8575461383443,893.6367876839358L1183.4241151623428,830.239357012324Z" fill="#b4acf4" stroke="#b4acf4"></path><path d="M1153.923250575317,784.8525407910347L1183.4241151623428,830.239357012324L1221.019643228501,721.304720811313Z" fill="#b3acf6" stroke="#b3acf6"></path><path d="M1221.019643228501,721.304720811313L1183.4241151623428,830.239357012324L1264.306658358546,832.2813774994574Z" fill="#b0a8f8" stroke="#b0a8f8"></path><path d="M1221.019643228501,721.304720811313L1264.306658358546,832.2813774994574L1376.359928715974,771.5979871340096Z" fill="#ada4fa" stroke="#ada4fa"></path><path d="M1376.359928715974,771.5979871340096L1264.306658358546,832.2813774994574L1349.550097817555,892.7856549248099Z" fill="#a79efc" stroke="#a79efc"></path><path d="M1376.359928715974,771.5979871340096L1349.550097817555,892.7856549248099L1432.7737794292625,862.9238784313202Z" fill="#a399fe" stroke="#a399fe"></path><path d="M1376.359928715974,771.5979871340096L1432.7737794292625,862.9238784313202L1475.7827577448916,725.262790096458Z" fill="#a39aff" stroke="#a39aff"></path><path d="M1475.7827577448916,725.262790096458L1432.7737794292625,862.9238784313202L1553.4236589854117,871.917807396967Z" fill="#9d93ff" stroke="#9d93ff"></path><path d="M1475.7827577448916,725.262790096458L1553.4236589854117,871.917807396967L1616.8068799155299,717.2402887383942Z" fill="#9b92ff" stroke="#9b92ff"></path><path d="M1616.8068799155299,717.2402887383942L1553.4236589854117,871.917807396967L1545.6496146228164,935.8047774957959Z" fill="#968cff" stroke="#968cff"></path><path d="M-54.21306299394928,849.8113769781776L-139.0109942795243,908.0790901661385L-19.89032214623876,894.1144334711134Z" fill="#9cbee5" stroke="#9cbee5"></path><path d="M-19.89032214623876,894.1144334711134L-139.0109942795243,908.0790901661385L-17.252496847650036,934.7289871587418Z" fill="#9cbee4" stroke="#9cbee4"></path><path d="M-19.89032214623876,894.1144334711134L-17.252496847650036,934.7289871587418L82.70228425273672,981.5051793458406Z" fill="#a4bfe3" stroke="#a4bfe3"></path><path d="M-19.89032214623876,894.1144334711134L82.70228425273672,981.5051793458406L131.27619979088195,809.7627748188097Z" fill="#acc4e2" stroke="#acc4e2"></path><path d="M131.27619979088195,809.7627748188097L82.70228425273672,981.5051793458406L221.14919941639528,954.797338481294Z" fill="#b5c6e0" stroke="#b5c6e0"></path><path d="M131.27619979088195,809.7627748188097L221.14919941639528,954.797338481294L245.46338453656062,803.8727578392718Z" fill="#becddf" stroke="#becddf"></path><path d="M245.46338453656062,803.8727578392718L221.14919941639528,954.797338481294L366.20015033870004,888.8452200079337Z" fill="#c6cfdd" stroke="#c6cfdd"></path><path d="M366.20015033870004,888.8452200079337L221.14919941639528,954.797338481294L304.17513455613516,976.7263041203842Z" fill="#c5ccdd" stroke="#c5ccdd"></path><path d="M366.20015033870004,888.8452200079337L304.17513455613516,976.7263041203842L407.535474934848,949.6118444111198Z" fill="#cdcfdc" stroke="#cdcfdc"></path><path d="M366.20015033870004,888.8452200079337L407.535474934848,949.6118444111198L416.25056998687796,876.8406716687605Z" fill="#d3d3db" stroke="#d3d3db"></path><path d="M416.25056998687796,876.8406716687605L407.535474934848,949.6118444111198L485.1104800903704,839.5331574534066Z" fill="#d9d6da" stroke="#d9d6da"></path><path d="M485.1104800903704,839.5331574534066L407.535474934848,949.6118444111198L569.0636857354548,943.471487055067Z" fill="#dcd6da" stroke="#dcd6da"></path><path d="M485.1104800903704,839.5331574534066L569.0636857354548,943.471487055067L598.0213221325539,880.5988428206183Z" fill="#d9d3dc" stroke="#d9d3dc"></path><path d="M598.0213221325539,880.5988428206183L569.0636857354548,943.471487055067L680.5303924519103,925.9135642205365Z" fill="#d3ccdf" stroke="#d3ccdf"></path><path d="M781.3136163563468,823.2940664456692L680.5303924519103,925.9135642205365L776.4555825467687,974.4735430309083Z" fill="#cbc3e4" stroke="#cbc3e4"></path><path d="M781.3136163563468,823.2940664456692L776.4555825467687,974.4735430309083L814.347179759061,973.7393449700903Z" fill="#c7bfe6" stroke="#c7bfe6"></path><path d="M781.3136163563468,823.2940664456692L814.347179759061,973.7393449700903L864.0123852842953,861.8322433007415Z" fill="#c7bfe7" stroke="#c7bfe7"></path><path d="M864.0123852842953,861.8322433007415L814.347179759061,973.7393449700903L944.8344214470126,893.3023912645876Z" fill="#c1bae9" stroke="#c1bae9"></path><path d="M944.8344214470126,893.3023912645876L814.347179759061,973.7393449700903L987.5733643758576,985.2611383853946Z" fill="#bdb4eb" stroke="#bdb4eb"></path><path d="M944.8344214470126,893.3023912645876L987.5733643758576,985.2611383853946L1025.3347728180233,965.2572817821056Z" fill="#b8afee" stroke="#b8afee"></path><path d="M944.8344214470126,893.3023912645876L1025.3347728180233,965.2572817821056L1041.8575461383443,893.6367876839358Z" fill="#b9b0ef" stroke="#b9b0ef"></path><path d="M1041.8575461383443,893.6367876839358L1025.3347728180233,965.2572817821056L1133.5163846239448,961.4235186541919Z" fill="#b3aaf1" stroke="#b3aaf1"></path><path d="M1041.8575461383443,893.6367876839358L1133.5163846239448,961.4235186541919L1183.4241151623428,830.239357012324Z" fill="#b2a9f3" stroke="#b2a9f3"></path><path d="M1183.4241151623428,830.239357012324L1133.5163846239448,961.4235186541919L1287.9400315776002,912.7825790329371Z" fill="#aca3f7" stroke="#aca3f7"></path><path d="M1183.4241151623428,830.239357012324L1287.9400315776002,912.7825790329371L1264.306658358546,832.2813774994574Z" fill="#aba2f8" stroke="#aba2f8"></path><path d="M1264.306658358546,832.2813774994574L1287.9400315776002,912.7825790329371L1349.550097817555,892.7856549248099Z" fill="#a69dfb" stroke="#a69dfb"></path><path d="M1349.550097817555,892.7856549248099L1287.9400315776002,912.7825790329371L1412.9560421244241,994.1959960118402Z" fill="#a096fd" stroke="#a096fd"></path><path d="M1349.550097817555,892.7856549248099L1412.9560421244241,994.1959960118402L1432.7737794292625,862.9238784313202Z" fill="#9e93ff" stroke="#9e93ff"></path><path d="M1432.7737794292625,862.9238784313202L1412.9560421244241,994.1959960118402L1510.506769468775,933.6986314097885Z" fill="#998fff" stroke="#998fff"></path><path d="M1432.7737794292625,862.9238784313202L1510.506769468775,933.6986314097885L1553.4236589854117,871.917807396967Z" fill="#988eff" stroke="#988eff"></path><path d="M1553.4236589854117,871.917807396967L1510.506769468775,933.6986314097885L1545.6496146228164,935.8047774957959Z" fill="#948aff" stroke="#948aff"></path><path d="M-139.0109942795243,908.0790901661385L82.70228425273672,981.5051793458406L-17.252496847650036,934.7289871587418Z" fill="#9fbde4" stroke="#9fbde4"></path><path d="M82.70228425273672,981.5051793458406L1412.9560421244241,994.1959960118402L987.5733643758576,985.2611383853946Z" fill="#c1b8e7" stroke="#c1b8e7"></path><path d="M82.70228425273672,981.5051793458406L987.5733643758576,985.2611383853946L304.17513455613516,976.7263041203842Z" fill="#d6d1da" stroke="#d6d1da"></path><path d="M82.70228425273672,981.5051793458406L304.17513455613516,976.7263041203842L221.14919941639528,954.797338481294Z" fill="#b8c6df" stroke="#b8c6df"></path><path d="M304.17513455613516,976.7263041203842L987.5733643758576,985.2611383853946L776.4555825467687,974.4735430309083Z" fill="#cac3e2" stroke="#cac3e2"></path><path d="M304.17513455613516,976.7263041203842L776.4555825467687,974.4735430309083L569.0636857354548,943.471487055067Z" fill="#d4cedc" stroke="#d4cedc"></path><path d="M304.17513455613516,976.7263041203842L569.0636857354548,943.471487055067L407.535474934848,949.6118444111198Z" fill="#d4d1da" stroke="#d4d1da"></path><path d="M569.0636857354548,943.471487055067L776.4555825467687,974.4735430309083L680.5303924519103,925.9135642205365Z" fill="#cdc6e1" stroke="#cdc6e1"></path><path d="M776.4555825467687,974.4735430309083L987.5733643758576,985.2611383853946L814.347179759061,973.7393449700903Z" fill="#bfb6e9" stroke="#bfb6e9"></path><path d="M987.5733643758576,985.2611383853946L1412.9560421244241,994.1959960118402L1133.5163846239448,961.4235186541919Z" fill="#a99ff6" stroke="#a99ff6"></path><path d="M987.5733643758576,985.2611383853946L1133.5163846239448,961.4235186541919L1025.3347728180233,965.2572817821056Z" fill="#b3a9f0" stroke="#b3a9f0"></path><path d="M1133.5163846239448,961.4235186541919L1412.9560421244241,994.1959960118402L1287.9400315776002,912.7825790329371Z" fill="#a39afa" stroke="#a39afa"></path><path d="M1412.9560421244241,994.1959960118402L1545.6496146228164,935.8047774957959L1510.506769468775,933.6986314097885Z" fill="#968aff" stroke="#968aff"></path></g><filter id="noise"><feTurbulence type="fractalNoise" in="fillPaint" fill="#F00" baseFrequency="0.7" numOctaves="10" stitchTiles="stitch"></feTurbulence><feComponentTransfer><feFuncR type="linear" slope="2" intercept="-.5"></feFuncR><feFuncG type="linear" slope="2" intercept="-.5"></feFuncG><feFuncB type="linear" slope="2" intercept="-.5"></feFuncB></feComponentTransfer><feColorMatrix type="matrix" values="0.3333 0.3333 0.3333 0 0 
 0.3333 0.3333 0.3333 0 0 
 0.3333 0.3333 0.3333 0 0 
 0 0 0 1 0"></feColorMatrix></filter><rect opacity="1" width="100%" height="100%" filter="url(#noise)"></rect></svg>